<!-- Generated by IcoMoon.io -->
<svg version="1.1" xmlns="http://www.w3.org/2000/svg" width="1024" height="1024" viewBox="0 0 1024 1024">
<g id="icomoon-ignore">
</g>
<path fill="#000" d="M512 1024c-14.506 0-26.658-4.915-36.454-14.746-9.83-9.795-14.746-21.949-14.746-36.454v-162.56l-130.56 130.56c-10.24 10.24-22.186 15.36-35.84 15.36s-25.6-5.12-35.84-15.36c-10.24-10.24-15.36-22.39-15.36-36.454 0-14.095 5.12-26.266 15.36-36.506l202.24-202.24v-102.4h-102.4l-202.24 202.24c-10.24 10.24-22.391 15.36-36.454 15.36-14.097 0-26.266-5.12-36.506-15.36s-15.36-22.185-15.36-35.84c0-13.655 5.12-25.6 15.36-35.84l130.56-130.56h-162.56c-14.507 0-26.658-4.915-36.454-14.746-9.83-9.795-14.746-21.949-14.746-36.454s4.915-26.675 14.746-36.506c9.796-9.796 21.948-14.694 36.454-14.694h162.56l-130.56-130.56c-10.24-10.24-15.36-22.186-15.36-35.84s5.12-25.6 15.36-35.84c10.24-10.24 22.409-15.36 36.506-15.36 14.063 0 26.214 5.12 36.454 15.36l202.24 202.24h102.4v-102.4l-202.24-202.24c-10.24-10.24-15.36-22.409-15.36-36.506 0-14.063 5.12-26.214 15.36-36.454s22.186-15.36 35.84-15.36c13.654 0 25.6 5.12 35.84 15.36l130.56 130.56v-162.56c0-14.507 4.915-26.675 14.746-36.506 9.796-9.796 21.948-14.694 36.454-14.694 14.505 0 26.675 4.898 36.506 14.694 9.795 9.83 14.694 21.999 14.694 36.506v162.56l130.56-130.56c10.24-10.24 22.185-15.36 35.84-15.36s25.6 5.12 35.84 15.36c10.24 10.24 15.36 22.391 15.36 36.454 0 14.097-5.12 26.266-15.36 36.506l-202.24 202.24v102.4h102.4l202.24-202.24c10.24-10.24 22.41-15.36 36.506-15.36 14.065 0 26.214 5.12 36.454 15.36s15.36 22.186 15.36 35.84c0 13.654-5.12 25.6-15.36 35.84l-130.56 130.56h162.56c14.505 0 26.66 4.898 36.454 14.694 9.83 9.83 14.746 21.999 14.746 36.506 0 14.505-4.915 26.66-14.746 36.454-9.795 9.83-21.949 14.746-36.454 14.746h-162.56l130.56 130.56c10.24 10.24 15.36 22.185 15.36 35.84s-5.12 25.6-15.36 35.84c-10.24 10.24-22.39 15.36-36.454 15.36-14.095 0-26.266-5.12-36.506-15.36l-202.24-202.24h-102.4v102.4l202.24 202.24c10.24 10.24 15.36 22.41 15.36 36.506 0 14.065-5.12 26.214-15.36 36.454s-22.185 15.36-35.84 15.36c-13.655 0-25.6-5.12-35.84-15.36l-130.56-130.56v162.56c0 14.505-4.9 26.66-14.694 36.454-9.83 9.83-22.001 14.746-36.506 14.746z"></path>
</svg>
