<svg width="28" height="28" viewBox="0 0 28 28" fill="none" xmlns="http://www.w3.org/2000/svg">
<g clip-path="url(#clip0_1986_320378)">
<path d="M24.4948 12.5741V9.33081C24.4948 7.40581 22.9198 5.83081 20.9948 5.83081H16.3281C15.4298 5.83081 14.6131 6.18081 13.9948 6.74081C13.3765 6.18081 12.5598 5.83081 11.6615 5.83081H6.99479C5.06979 5.83081 3.49479 7.40581 3.49479 9.33081V12.5741C2.78313 13.2158 2.32812 14.1375 2.32812 15.1641V22.1641H4.66146V19.8308H23.3281V22.1641H25.6615V15.1641C25.6615 14.1375 25.2065 13.2158 24.4948 12.5741ZM16.3281 8.16414H20.9948C21.6365 8.16414 22.1615 8.68914 22.1615 9.33081V11.6641H15.1615V9.33081C15.1615 8.68914 15.6865 8.16414 16.3281 8.16414ZM5.82813 9.33081C5.82813 8.68914 6.35313 8.16414 6.99479 8.16414H11.6615C12.3031 8.16414 12.8281 8.68914 12.8281 9.33081V11.6641H5.82813V9.33081ZM4.66146 17.4975V15.1641C4.66146 14.5225 5.18646 13.9975 5.82813 13.9975H22.1615C22.8031 13.9975 23.3281 14.5225 23.3281 15.1641V17.4975H4.66146Z" fill="#F8F0E0"/>
</g>
<defs>
<clipPath id="clip0_1986_320378">
<rect width="28" height="28" fill="white"/>
</clipPath>
</defs>
</svg>
