<svg width="28" height="28" viewBox="0 0 28 28" fill="none" xmlns="http://www.w3.org/2000/svg">
<g clip-path="url(#clip0_1986_320389)">
<path d="M8.16406 16.3333C10.1007 16.3333 11.6641 14.7699 11.6641 12.8333C11.6641 10.8966 10.1007 9.33325 8.16406 9.33325C6.2274 9.33325 4.66406 10.8966 4.66406 12.8333C4.66406 14.7699 6.2274 16.3333 8.16406 16.3333ZM8.16406 11.6666C8.80573 11.6666 9.33073 12.1916 9.33073 12.8333C9.33073 13.4749 8.80573 13.9999 8.16406 13.9999C7.5224 13.9999 6.9974 13.4749 6.9974 12.8333C6.9974 12.1916 7.5224 11.6666 8.16406 11.6666ZM22.1641 8.16659H12.8307V17.4999H3.4974V5.83325H1.16406V23.3333H3.4974V19.8333H24.4974V23.3333H26.8307V12.8333C26.8307 10.2549 24.7424 8.16659 22.1641 8.16659ZM24.4974 17.4999H15.1641V10.4999H22.1641C23.4474 10.4999 24.4974 11.5499 24.4974 12.8333V17.4999Z" fill="#F8F0E0"/>
</g>
<defs>
<clipPath id="clip0_1986_320389">
<rect width="28" height="28" fill="white"/>
</clipPath>
</defs>
</svg>

