<!-- Generated by IcoMoon.io -->
<svg version="1.1" xmlns="http://www.w3.org/2000/svg" width="1024" height="1024" viewBox="0 0 1024 1024">
<g id="icomoon-ignore">
</g>
<path fill="#000" d="M719.36 757.248l146.432-157.184c19.456-19.968 36.864-40.448 53.248-60.416s30.208-39.936 41.984-59.904c11.776-19.968 20.992-39.936 27.648-59.904s9.728-40.448 9.728-60.416c0-27.136-4.608-52.224-13.824-74.752s-22.528-41.472-39.936-56.832c-17.408-15.872-39.424-27.648-64.512-36.352-26.112-8.192-55.296-12.288-88.064-12.288-35.328 0-67.072 5.632-94.72 16.384s-51.2 26.112-69.632 45.056c-18.944 18.944-33.28 40.96-43.008 66.56-9.216 24.064-13.824 49.664-14.336 76.8h109.568c0.512-15.872 2.56-30.72 6.656-44.544 4.608-14.848 11.776-27.648 20.48-38.4 9.216-10.752 20.992-18.944 34.816-25.088s30.72-9.216 49.152-9.216c15.872 0 29.696 2.56 41.472 7.68s22.016 12.8 30.208 22.016c8.192 9.216 14.336 20.48 18.944 33.28 4.096 12.8 6.656 26.624 6.656 41.472 0 11.264-1.536 22.016-4.096 33.28-3.072 11.264-7.68 23.040-14.848 35.84s-16.384 27.136-28.672 42.496c-11.776 15.36-26.624 33.28-45.056 52.736l-213.504 232.96v76.288h441.856v-87.552h-304.64zM307.2 281.6h-102.4v204.8h-204.8v102.4h204.8v204.8h102.4v-204.8h204.8v-102.4h-204.8v-204.8z"></path>
</svg>
