<!-- Generated by IcoMoon.io -->
<svg version="1.1" xmlns="http://www.w3.org/2000/svg" width="1024" height="1024" viewBox="0 0 1024 1024">
<g id="icomoon-ignore">
</g>
<path fill="#000" d="M386.969 959.609c-98.358-12.503-181.294-55.848-248.81-130.032s-101.275-161.704-101.275-262.564c0-55.013 10.219-106.076 30.657-153.188 20.405-47.078 49.362-88.538 86.871-124.38l282.569-277.568 282.569 277.568c30.007 30.007 54.813 63.765 74.418 101.275 19.57 37.509 32.693 77.935 39.36 121.28h-101.275c-5.837-28.34-15.639-55.23-29.407-80.67-13.738-25.406-31.443-48.528-53.113-69.367l-212.552-210.051-212.552 210.051c-29.173 27.507-51.046 58.548-65.616 93.123-14.603 34.608-21.906 71.918-21.906 111.927 0 72.518 23.972 136.283 71.918 191.296 47.912 55.013 107.292 88.357 178.143 100.025v101.275zM501.998 720.801l-30.007-68.767c21.672-11.668 44.377-21.255 68.117-28.757 23.771-7.502 47.747-11.252 71.918-11.252 19.169 0 38.124 2.285 56.864 6.851 18.769 4.601 36.909 10.238 54.413 16.905 15.004 6.667 30.223 12.503 45.661 17.505 15.404 5.001 31.443 7.502 48.112 7.502 19.169 0 37.924-3.335 56.264-10.002s36.258-14.589 53.763-23.756l30.007 68.767c-21.671 11.668-44.375 21.255-68.117 28.757-23.771 7.502-47.747 11.252-71.918 11.252-19.169 0-38.124-2.301-56.864-6.902-18.769-4.566-36.909-10.188-54.413-16.854-15.004-6.667-30.223-12.503-45.661-17.505-15.404-5.001-31.443-7.502-48.112-7.502-19.169 0-37.924 3.335-56.264 10.002s-36.258 14.589-53.763 23.756zM501.998 870.838l-30.007-68.767c21.672-11.668 44.377-21.255 68.117-28.757 23.771-7.502 47.747-11.252 71.918-11.252 19.169 0 38.124 2.285 56.864 6.851 18.769 4.601 36.909 10.238 54.413 16.905 15.004 6.667 30.223 12.503 45.661 17.505 15.404 5.001 31.443 7.502 48.112 7.502 19.169 0 37.924-3.335 56.264-10.002s36.258-14.589 53.763-23.756l30.007 68.767c-21.671 11.668-44.375 21.255-68.117 28.757-23.771 7.502-47.747 11.252-71.918 11.252-19.169 0-38.124-2.301-56.864-6.902-18.769-4.566-36.909-10.188-54.413-16.854-15.004-6.667-30.223-12.503-45.661-17.505-15.404-5.001-31.443-7.502-48.112-7.502-19.169 0-37.924 3.335-56.264 10.002s-36.258 14.589-53.763 23.756zM501.998 1020.873l-30.007-68.767c21.672-11.668 44.377-21.255 68.117-28.757 23.771-7.502 47.747-11.252 71.918-11.252 19.169 0 38.124 2.285 56.864 6.851 18.769 4.601 36.909 10.238 54.413 16.905 15.004 6.667 30.223 12.503 45.661 17.505 15.404 5.001 31.443 7.502 48.112 7.502 19.169 0 37.924-3.335 56.264-10.002s36.258-14.589 53.763-23.756l30.007 68.767c-21.671 11.668-44.375 21.255-68.117 28.757-23.771 7.502-47.747 11.252-71.918 11.252-19.169 0-38.124-2.301-56.864-6.902-18.769-4.566-36.909-10.188-54.413-16.854-15.004-6.667-30.223-12.503-45.661-17.505-15.404-5.001-31.443-7.502-48.112-7.502-19.169 0-37.924 3.335-56.264 10.002s-36.258 14.589-53.763 23.756z"></path>
</svg>
