<!-- Generated by IcoMoon.io -->
<svg version="1.1" xmlns="http://www.w3.org/2000/svg" width="1136" height="1024" viewBox="0 0 1136 1024">
<g id="icomoon-ignore">
</g>
<path d="M94.663 914.335c-26.033 0-48.311-9.261-66.835-27.783-18.554-18.557-27.832-40.851-27.832-66.882h189.335c-26.034 0-48.311-9.261-66.836-27.787-18.554-18.553-27.832-40.847-27.832-66.882v-520.668c0-26.034 9.278-48.328 27.832-66.882 18.523-18.523 40.802-27.784 66.836-27.784h757.337c26.035 0 48.329 9.261 66.882 27.784 18.526 18.554 27.787 40.849 27.787 66.882v520.668c0 26.035-9.261 48.329-27.787 66.882-18.553 18.526-40.847 27.787-66.882 27.787h189.336c0 26.032-9.261 48.326-27.783 66.882-18.557 18.522-40.851 27.783-66.882 27.783h-946.673zM946.666 724.999v-520.668h-757.337v520.668h757.337zM567.999 867c13.41 0 24.659-4.544 33.747-13.632 9.057-9.057 13.587-20.289 13.587-33.7 0-13.414-4.53-24.646-13.587-33.703-9.088-9.088-20.337-13.632-33.747-13.632s-24.646 4.544-33.703 13.632c-9.088 9.057-13.632 20.289-13.632 33.703 0 13.41 4.544 24.643 13.632 33.7 9.057 9.088 20.292 13.632 33.703 13.632z"></path>
</svg>
