<!-- Generated by IcoMoon.io -->
<svg version="1.1" xmlns="http://www.w3.org/2000/svg" width="1024" height="1024" viewBox="0 0 1024 1024">
<g id="icomoon-ignore">
</g>
<path fill="#000" d="M0 870.4v-307.2c0-23.040 4.693-43.946 14.080-62.72s21.76-35.414 37.12-49.92v-143.36c0-42.666 14.934-78.934 44.8-108.8s66.134-44.8 108.8-44.8h204.8c19.626 0 37.974 3.635 55.040 10.906 17.066 7.236 32.854 17.254 47.36 30.054 14.505-12.8 30.295-22.818 47.36-30.054 17.065-7.27 35.415-10.906 55.040-10.906h204.8c42.665 0 78.935 14.933 108.8 44.8s44.8 66.134 44.8 108.8v143.36c15.36 14.506 27.735 31.146 37.12 49.92s14.080 39.68 14.080 62.72v307.2h-102.4v-102.4h-819.2v102.4h-102.4zM563.2 409.6h307.2v-102.4c0-14.506-4.915-26.675-14.746-36.506-9.795-9.796-21.949-14.694-36.454-14.694h-204.8c-14.505 0-26.66 4.898-36.454 14.694-9.83 9.83-14.746 21.999-14.746 36.506v102.4zM153.6 409.6h307.2v-102.4c0-14.506-4.898-26.675-14.694-36.506-9.83-9.796-21.999-14.694-36.506-14.694h-204.8c-14.506 0-26.675 4.898-36.506 14.694-9.796 9.83-14.694 21.999-14.694 36.506v102.4zM102.4 665.6h819.2v-102.4c0-14.506-4.915-26.675-14.746-36.506-9.795-9.796-21.949-14.694-36.454-14.694h-716.8c-14.506 0-26.675 4.898-36.506 14.694-9.796 9.83-14.694 21.999-14.694 36.506v102.4z"></path>
</svg>
