<!-- Generated by IcoMoon.io -->
<svg version="1.1" xmlns="http://www.w3.org/2000/svg" width="1024" height="1024" viewBox="0 0 1024 1024">
<g id="icomoon-ignore">
</g>
<path d="M673.62 458.111v-323.368l-161.684-161.684-161.684 161.684v107.788h-323.367v754.528h970.104v-538.949h-323.368zM242.462 889.267h-107.789v-107.788h107.789v107.788zM242.462 673.69h-107.789v-107.792h107.789v107.792zM242.462 458.111h-107.789v-107.788h107.789v107.788zM565.831 889.267h-107.788v-107.788h107.788v107.788zM565.831 673.69h-107.788v-107.792h107.788v107.792zM565.831 458.111h-107.788v-107.788h107.788v107.788zM565.831 242.531h-107.788v-107.788h107.788v107.788zM889.199 889.267h-107.788v-107.788h107.788v107.788zM889.199 673.69h-107.788v-107.792h107.788v107.792z"></path>
</svg>
