<svg width="40" height="40" viewBox="0 0 40 40" fill="none" xmlns="http://www.w3.org/2000/svg">
<g clip-path="url(#clip0_1986_320472)">
<path d="M38.3307 19.9833L34.2641 15.3333L34.8307 9.18333L28.8141 7.81667L25.6641 2.5L19.9974 4.93333L14.3307 2.5L11.1807 7.81667L5.16406 9.16667L5.73073 15.3333L1.66406 19.9833L5.73073 24.6333L5.16406 30.8L11.1807 32.1667L14.3307 37.5L19.9974 35.05L25.6641 37.4833L28.8141 32.1667L34.8307 30.8L34.2641 24.65L38.3307 19.9833ZM31.7474 22.45L30.8141 23.5333L30.9474 24.95L31.2474 28.2L28.0807 28.9167L26.6807 29.2333L25.9474 30.4667L24.2974 33.2667L21.3307 31.9833L19.9974 31.4167L18.6807 31.9833L15.7141 33.2667L14.0641 30.4833L13.3307 29.25L11.9307 28.9333L8.76406 28.2167L9.06406 24.95L9.1974 23.5333L8.26406 22.45L6.11406 20L8.26406 17.5333L9.1974 16.45L9.0474 15.0167L8.7474 11.7833L11.9141 11.0667L13.3141 10.75L14.0474 9.51667L15.6974 6.71667L18.6641 8L19.9974 8.56667L21.3141 8L24.2807 6.71667L25.9307 9.51667L26.6641 10.75L28.0641 11.0667L31.2307 11.7833L30.9307 15.0333L30.7974 16.45L31.7307 17.5333L33.8807 19.9833L31.7474 22.45Z" fill="#BF6104"/>
<path d="M16.8177 22.9172L12.951 19.0339L10.4844 21.5172L16.8177 27.8672L29.051 15.6005L26.5844 13.1172L16.8177 22.9172Z" fill="#BF6104"/>
</g>
<defs>
<clipPath id="clip0_1986_320472">
<rect width="40" height="40" fill="white"/>
</clipPath>
</defs>
</svg>
