<svg xmlns="http://www.w3.org/2000/svg" fill="none" viewBox="0 0 24 24"><path fill="#FF385C" fill-rule="evenodd" d="M21.157 16.214c-.101-.24-.203-.5-.304-.72-.162-.36-.325-.701-.467-1.021l-.02-.02a208.116 208.116 0 0 0-4.488-9.05l-.061-.12c-.162-.3-.325-.62-.488-.94-.203-.36-.405-.741-.73-1.102A3.298 3.298 0 0 0 12.02 2c-1.015 0-1.929.44-2.6 1.202-.304.36-.527.74-.73 1.1-.163.32-.325.641-.487.942l-.062.12a233.985 233.985 0 0 0-4.487 9.048l-.02.04c-.142.32-.305.661-.467 1.022-.102.22-.203.46-.305.72-.264.74-.345 1.442-.243 2.162a4.264 4.264 0 0 0 2.639 3.323A4.208 4.208 0 0 0 6.903 22a5.422 5.422 0 0 0 2.559-.72c.832-.461 1.624-1.122 2.517-2.083.894.961 1.706 1.622 2.518 2.082a5.42 5.42 0 0 0 2.559.721c.568 0 1.137-.1 1.644-.32a4.257 4.257 0 0 0 2.64-3.324c.162-.7.082-1.4-.183-2.142ZM12 17.255c-1.096-1.361-1.806-2.642-2.05-3.723-.102-.461-.122-.861-.062-1.222.041-.32.163-.6.325-.84.386-.541 1.036-.881 1.787-.881.752 0 1.422.32 1.787.88.163.24.285.521.325.841.061.36.041.78-.06 1.222-.244 1.06-.955 2.342-2.052 3.723Zm8.102.941a2.98 2.98 0 0 1-1.847 2.342 3.11 3.11 0 0 1-1.544.2 4.02 4.02 0 0 1-1.543-.52c-.73-.4-1.462-1.02-2.315-1.942 1.34-1.622 2.153-3.103 2.457-4.424a4.95 4.95 0 0 0 .102-1.702 3.24 3.24 0 0 0-.548-1.361c-.63-.901-1.685-1.422-2.864-1.422-1.177 0-2.233.541-2.862 1.422-.285.4-.468.86-.549 1.361a4.092 4.092 0 0 0 .102 1.702c.304 1.321 1.137 2.823 2.457 4.444-.833.921-1.584 1.542-2.315 1.942-.528.3-1.036.46-1.543.52a3.297 3.297 0 0 1-1.543-.2 2.983 2.983 0 0 1-1.849-2.342c-.06-.5-.02-1 .183-1.562.062-.2.163-.4.265-.64.142-.32.304-.66.466-1l.02-.041A217.999 217.999 0 0 1 9.3 5.984l.061-.12c.162-.3.325-.62.487-.921.163-.32.346-.62.569-.88a2.134 2.134 0 0 1 1.624-.742c.63 0 1.198.261 1.625.741.223.26.406.56.568.881.163.3.325.62.488.921l.06.12a263.89 263.89 0 0 1 4.447 9.01v.02c.162.32.305.68.467 1 .102.24.203.44.264.64.163.52.224 1.022.142 1.542Z" clip-rule="evenodd"/></svg>