<svg xmlns="http://www.w3.org/2000/svg" width="21.487" height="21.54" viewBox="0 0 21.487 21.54">
  <g id="bath" transform="translate(-1.5 -1.388)">
    <path id="Path_122" data-name="Path 122" d="M21.554,13.259H4.365V5.2a2.3,2.3,0,0,1,.677-1.633l.018-.018A2.314,2.314,0,0,1,7.683,3.1,3.541,3.541,0,0,0,8.21,7.421l.49.49-.9.9L8.81,9.827l.9-.9,5-5,.9-.9L14.6,2.009l-.9.9-.49-.49a3.54,3.54,0,0,0-4.518-.4,3.743,3.743,0,0,0-4.645.518l-.018.018A3.718,3.718,0,0,0,2.932,5.2v8.058H1.5v1.432H2.932v1.374a1.072,1.072,0,0,0,.055.34l1.333,4a1.073,1.073,0,0,0,1.019.735h.577l-.522,1.791H6.887l.522-1.791h9.315l.537,1.791h1.5l-.537-1.791h.928a1.073,1.073,0,0,0,1.019-.735l1.332-4a1.074,1.074,0,0,0,.055-.34V14.692h1.432V13.259ZM9.223,3.434a2.105,2.105,0,0,1,2.974,0l.49.49L9.713,6.9l-.49-.49a2.105,2.105,0,0,1,0-2.974Zm10.9,12.573-1.232,3.7H5.6l-1.232-3.7V14.692H20.122Z" transform="translate(0 0)" fill="#00423c"/>
  </g>
</svg>
