<svg width="29" height="28" viewBox="0 0 29 28" fill="none" xmlns="http://www.w3.org/2000/svg">
<g clip-path="url(#clip0_2064_338159)">
<path d="M14.915 23.1585C14.705 23.3685 14.3316 23.4035 14.0866 23.1585C13.8766 22.9485 13.8416 22.5752 14.0866 22.3302L18.0416 18.3752L16.3966 16.7302L12.4416 20.6852C12.22 20.9185 11.8466 20.9068 11.6133 20.6852C11.3683 20.4402 11.4033 20.0668 11.6133 19.8568L15.5683 15.9018L13.9233 14.2568L9.96831 18.2118C9.75831 18.4218 9.38498 18.4568 9.13998 18.2118C8.91831 17.9902 8.91831 17.6168 9.13998 17.3835L13.095 13.4285L11.4383 11.7835L7.48331 15.7385C7.27331 15.9485 6.89998 15.9835 6.65498 15.7385C6.43331 15.5052 6.43331 15.1435 6.65498 14.9102L11.765 9.80016L13.9466 11.9702C15.055 13.0785 16.9683 13.0668 18.0766 11.9702C19.22 10.8268 19.22 8.9835 18.0766 7.84016L15.9066 5.67016L16.2333 5.3435C17.1433 4.4335 18.625 4.4335 19.535 5.3435L24.4816 10.2902C25.3916 11.2002 25.3916 12.6818 24.4816 13.5918L14.915 23.1585ZM26.1266 15.2485C27.9466 13.4285 27.9466 10.4768 26.1266 8.64516L21.18 3.6985C19.36 1.8785 16.4083 1.8785 14.5766 3.6985L14.25 4.02516L13.9233 3.6985C12.1033 1.8785 9.15164 1.8785 7.31998 3.6985L3.18998 7.8285C1.53331 9.48516 1.38164 12.0635 2.72331 13.8835L4.41498 12.1918C3.95998 11.3168 4.11164 10.2085 4.84664 9.4735L8.97664 5.3435C9.88664 4.4335 11.3683 4.4335 12.2783 5.3435L16.4316 9.49683C16.6416 9.70683 16.6766 10.0802 16.4316 10.3252C16.1866 10.5702 15.8133 10.5352 15.6033 10.3252L11.765 6.4985L4.99831 13.2535C3.85498 14.3852 3.85498 16.2402 4.99831 17.3835C5.45331 17.8385 6.03664 18.1185 6.65498 18.2002C6.73664 18.8068 7.00498 19.3902 7.47164 19.8568C7.93831 20.3235 8.52164 20.5918 9.12831 20.6735C9.20998 21.2802 9.47831 21.8635 9.94498 22.3302C10.4116 22.7968 10.995 23.0652 11.6016 23.1468C11.6833 23.7768 11.9633 24.3485 12.4183 24.8035C12.9666 25.3518 13.7016 25.6552 14.4833 25.6552C15.265 25.6552 16 25.3518 16.5483 24.8035L26.1266 15.2485Z" fill="#F8F0E0"/>
</g>
<defs>
<clipPath id="clip0_2064_338159">
<rect width="28" height="28" fill="white" transform="translate(0.664062)"/>
</clipPath>
</defs>
</svg>
