<svg xmlns="http://www.w3.org/2000/svg" width="19.731" height="23.963" viewBox="0 0 19.731 23.963">
  <g id="location_outline" transform="translate(-4.8)">
    <path id="Path_91" data-name="Path 91" d="M19.854,16.452c1.674-2.389,2.828-4.906,2.828-7.2a7.726,7.726,0,0,0-8.016-7.4,7.726,7.726,0,0,0-8.016,7.4c0,2.3,1.153,4.814,2.828,7.2a35.815,35.815,0,0,0,4.963,5.566.314.314,0,0,0,.45,0A35.816,35.816,0,0,0,19.854,16.452Zm-3.712,6.929c2.752-2.528,8.389-8.406,8.389-14.132C24.531,4.141,20.114,0,14.666,0S4.8,4.141,4.8,9.249c0,5.726,5.637,11.6,8.389,14.132A2.163,2.163,0,0,0,16.142,23.381Z" fill="#00423c" fill-rule="evenodd"/>
    <path id="Path_92" data-name="Path 92" d="M24.2,15.7A3.7,3.7,0,1,1,20.5,12,3.7,3.7,0,0,1,24.2,15.7Z" transform="translate(-5.834 -5.834)" fill="#00423c"/>
  </g>
</svg>
