<?xml version="1.0" encoding="UTF-8"?>
<svg id="tisya" xmlns="http://www.w3.org/2000/svg" version="1.1" viewBox="0 0 297.8 77.1">
  <!-- Generator: Adobe Illustrator 29.1.0, SVG Export Plug-In . SVG Version: 2.1.0 Build 142)  -->
  <defs>
    <style>
      .st0 {
        fill: #e56d00;
      }

      .st1 {
        fill: #00423c;
      }

      .st2 {
        fill: #003a4c;
      }
    </style>
  </defs>
  <g id="Layer_1">
    <g id="star">
      <path id="Path_16" class="st0" d="M11.5,6.2h0c-.1,0-.2.2-.3.2h-1.9c-2.1,0-3.9,2.7-3.4,4.6l-.2,1.6v-2.5c0-1.6-1.8-3.7-3.4-3.7H.3c0,0-.2-.1-.3,0H0c0,0,2.3,0,2.3,0,1.9-.3,3.3-1.8,3.5-3.7V0l.2,1.6c-.4,2,1.4,4.6,3.5,4.6h2.1Z"/>
      <path id="Path_18" class="st0" d="M243.5,46.5l-.9.2c-.7.3-1.1,1.1-1,1.8.1-1-.6-1.9-1.6-2,0,0-.2,0-.3,0,1,0,1.9-.8,1.9-1.8,0,0,0-.2,0-.3-.1,1,.6,1.9,1.5,2,.1,0,.2,0,.4,0Z"/>
    </g>
    <g id="green">
      <path id="Union_1" class="st1" d="M29.4,73.3c-2.3-3.7-1.2-8.6,2.6-10.9.1,0,.3-.2.4-.3-.1.5-.3.9-.5,1.4-1.2,4.2,1.3,8.6,5.5,9.8.5.1,1,.2,1.5.3,1.4.1,2.8-.1,4.1-.7-1.1,2.3-3.4,3.8-5.9,4.2-.3,0-.5,0-.8,0-2.8,0-5.5-1.4-7-3.8ZM44.8,75.2c3.9-4.6,3.4-11.5-1.2-15.4s-11.5-3.4-15.4,1.2c-2.9,3.4-3.5,8.3-1.4,12.3l1.1,1.7c-8.2-4.7-11.1-15.1-6.5-23.3,4.2-7.4,13.1-10.7,21.1-7.9,12.7,4.4,15.3,21.2,5,29.7-.9.7-1.8,1.3-2.7,1.8,0,0,0,0,0,0ZM50.2,73.6c3.1-3,5.2-6.9,6-11.2,2.6-15.3-12.3-28-27-22.7-12.4,4.5-17.1,19.6-9.8,30.5-.2,0-.2,0-.3-.2-4.7-4-8.2-11.2-8.8-17.3-1.5-14.6,9.1-27.6,23.6-29.1,4.5-.5,9,.2,13.2,2,19.1,8.1,22.2,34.8,5,46.8-.6.5-1.3.9-2,1.2h0ZM43.1,72.9h0ZM3,52.6C-3.4,34.5,5.4,14.6,23,7.1c3.3-1.4,6.4-2.7,9.7-.3,3.3,2.4,2.9,5.6,2.9,9.2.1,1.1.1,2.1,0,3.2,0,.3-.2.6-.5.8-.9.2-1.8.4-2.7.4-16.4,2.1-27.9,17.1-25.8,33.5.4,3,1.2,6,2.5,8.7l1.5,2.7h0c-3.5-3.6-6.1-8-7.8-12.7Z"/>
      <path id="Union_2" class="st1" d="M141.4,67.9v-.3s4.2-10.7,4.2-10.7l-10.9-26.3c0,0,0-.2.1-.2h7.4l6.7,17.2h.3c0,0,5.5-17.2,5.5-17.2h7.3s.1.1.1.2l-13.2,37.4h-7.6ZM264.1,64.8h-1.5v-.5c0,0,3-7.2,3-7.2l-9.3-20.6c0-.4,1.4-.4,1.5,0l8.5,18.6,7.5-18.8c.2-.2,1.4-.2,1.4,0l-11.1,28.4h0ZM167.7,55c-8.6-7.4-5.3-24,6.8-25.3,3.9-.6,7.8,1,10.3,4.1h.2v-3.4h.1c0-.1,6.5-.1,6.5-.1h.1v20c0,0,.1.1.2.2h2.2l-1.8,6.7h-7.3v-8.1h-.3s-1.9,6.5-1.9,6.5c-.2.4-1,.8-1.3,1-1.7.9-3.5,1.3-5.4,1.3-3,0-5.9-1.1-8.2-3ZM176.2,36.1c-5.2.5-7.7,6.4-5.9,10.9,2.9,7.2,14,5.6,14.6-2.4.4-5-3-8.5-7.8-8.5-.3,0-.7,0-1,0h0ZM113.6,55.5c-.2-.1-.7-.3-.7-.6l1.6-5.6c2.9,1.7,7,3.8,10.4,2.9,1.6-.4,2.7-1.9,1.6-3.4-1.1-1.5-5.7-2.6-7.5-3.4-9.7-4.6-5.2-15.6,4.3-15.7h1c3,0,5.9,1,8.4,2.6l-1.5,5.7c-2.2-1.8-5-2.7-7.9-2.6-1.8.1-3.3,1.3-2.6,3.2.6,1.8,4.3,2.5,5.9,3.1,2,.7,4.9,2.1,6.1,3.9,2.1,3.1,1.6,7.3-1.2,9.8-2.3,1.8-5.3,2.8-8.2,2.7-3.4,0-6.7-.9-9.7-2.5ZM102,57.3h-.1v-20.1h-.1c0-.1-2.2-.1-2.2-.1l1.8-6.7h7.3v20.1h.1c0,.1,2.2.1,2.2.1l-1.6,6.4-.2.3h-7.1ZM85,57.3h-.1v-20.4h-4.9c-.1,0-.2-.3-.1-.4.7-1.8.9-4,1.5-5.8,0-.1,0-.2.2-.3h3.3v-7.5l6.8-2h0v9.5h6.4c-.3,2.1-1.1,4.1-1.5,6.2l-.2.3h-4.7v20.2h-.1c0,.1-6.5.1-6.5.1ZM231,46.3c.1-9.8,12.6-14.3,18.6-6.6.2.2.7,1.2.8,1.2.1,0,.4,0,.4,0v-4.5h1.4v19h2.1c0,0,.1,0,0,.2,0,.3-.3.8-.3,1.2h-3.3v-4.4c0,0-.1-.2-.2-.2-.2,0-1,1.4-1.3,1.6-1.9,2.3-4.7,3.6-7.6,3.6-5.9,0-10.7-4.7-10.8-10.7,0,0,0-.1,0-.2ZM233.2,50.3c2.1,4.7,7.6,6.7,12.3,4.6s6.7-7.6,4.6-12.3c-1.6-3.5-5.2-5.7-9-5.4h0c-5.1.3-9,4.7-8.7,9.9,0,1.1.3,2.2.8,3.2h0ZM279.5,56.2c-.9-.4-1.8-.9-2.5-1.5-.3-.3.1-1.5.3-1.4.1,0,1.4,1,1.7,1.2,1.9,1.1,4.1,1.5,6.3,1.3,2-.1,4.5-1.1,4.7-3.4.6-6.8-12.4-3.9-12.6-10.9,0-3.4,3-5.2,6-5.4h0c1.7-.1,3.5.2,5.1.9.3.1,1.7.8,1.7,1.1,0,.2-.3,1.2-.5,1.2,0,0-1.3-.8-1.5-.9-2.1-1-4.5-1.2-6.7-.5-3.3,1.3-3.7,5.1-.4,6.7,3.5,1.8,10.8,2.2,10.3,7.7-.3,3.7-3.7,5-7.1,5-1.7,0-3.3-.3-4.8-.9h0ZM202.8,55.7c-.3-.2-1.8-1.1-1.8-1.3.1-.2.2-1.3.5-1.2.1,0,1.6,1.1,1.9,1.3,2.6,1.4,7.1,1.9,9.5,0,1.5-1.3,1.7-3.6.4-5.1-.2-.3-.5-.5-.9-.7-3-2.1-10.3-2.1-10.8-6.7-.6-6.8,8.8-7.4,12.8-4.1l-.3,1.2h0c-.2.1-1-.5-1.2-.7-2.3-1.2-5.5-1.8-7.9-.4-1.7.8-2.4,2.9-1.6,4.6.3.6.8,1.1,1.4,1.5,3.6,2.2,11.3,2.2,10.8,8-.3,3.6-3.6,4.9-7,4.9-2,0-4-.4-5.8-1.3h0ZM222.3,56.7v-24.9h-20.1c-.3-.3,0-.9-.1-1.3h20.2v-4h.2c0-.1,1.2,1.1,1.2,1.1v2.8h.1c0,.1,65.6.1,65.6.1,0,.4.1,1-.1,1.3h-65.6v24.9h-1.4ZM250.8,36.3h0ZM142.3,30.4h0ZM104.7,20c5.2-.6,5.8,7,1,7.5-.2,0-.3,0-.5,0-4.7,0-5-7-.5-7.5Z"/>
      <path id="Path_17" class="st2" d="M295.1,28.5c3.3-.3,3.7,4.7.5,5s-3.7-4.7-.5-5ZM295.2,28.7c-3,.2-2.7,4.8.2,4.7,3.1-.1,2.8-4.9-.2-4.6h0Z"/>
      <path id="Path_19" class="st2" d="M295.7,29.8c.2,0,.3.2.5.4.5.9-.6,1.2-.6,1.3l.8.9c-.7.1-.9-.6-1.4-.8v.8s-.4,0-.4,0v-2.1c0,0-.4,0-.2-.5.4,0,1,0,1.3,0h0ZM295,31c1.2.2,1.1-1,0-.8v.8Z"/>
      <path id="Path_20" class="st2" d="M56.4,72.4c.7,0,1.2.5,1.3,1.1,0,.6-.4,1.2-1.1,1.3-.7,0-1.2-.5-1.3-1.1,0-.6.4-1.2,1.1-1.3ZM56.5,72.5c-.6,0-1.1.6-1,1.2,0,.6.5,1,1.1,1,.6,0,1.1-.6,1-1.3,0-.6-.5-1-1.1-1h0Z"/>
      <path id="Path_21" class="st2" d="M56.8,73c0,0,.2.1.2.2.2.4-.3.6-.3.6l.4.4c-.3,0-.4-.3-.7-.4v.4s-.2,0-.2,0v-1s-.2,0,0-.2c.2,0,.5,0,.6,0h0ZM56.4,73.6c.6,0,.5-.5,0-.4v.4Z"/>
    </g>
  </g>
</svg>