<svg xmlns="http://www.w3.org/2000/svg" width="19.227" height="19.227" viewBox="0 0 19.227 19.227">
  <g id="user-multiple" transform="translate(-3 -3)">
    <path id="Path_113" data-name="Path 113" d="M39.307,35.24H37.933V31.807A3.437,3.437,0,0,0,34.5,28.373V27a4.812,4.812,0,0,1,4.807,4.807Z" transform="translate(-17.08 -13.013)" fill="#00423c"/>
    <path id="Path_114" data-name="Path 114" d="M16.733,35.24H15.36V31.807a3.437,3.437,0,0,0-3.433-3.433H7.807a3.437,3.437,0,0,0-3.433,3.433V35.24H3V31.807A4.812,4.812,0,0,1,7.807,27h4.12a4.812,4.812,0,0,1,4.807,4.807Z" transform="translate(0 -13.013)" fill="#00423c"/>
    <path id="Path_115" data-name="Path 115" d="M30,3V4.373a3.433,3.433,0,1,1,0,6.867v1.373A4.807,4.807,0,1,0,30,3Z" transform="translate(-14.64 0)" fill="#00423c"/>
    <path id="Path_116" data-name="Path 116" d="M12.307,4.373A3.433,3.433,0,1,1,8.873,7.807a3.433,3.433,0,0,1,3.433-3.433m0-1.373a4.807,4.807,0,1,0,4.807,4.807A4.807,4.807,0,0,0,12.307,3Z" transform="translate(-2.44 0)" fill="#00423c"/>
  </g>
</svg>
