<?xml version="1.0" encoding="UTF-8"?>
<svg id="Layer_2" data-name="Layer 2" xmlns="http://www.w3.org/2000/svg" viewBox="0 0 152.39 152.39">
  <g id="Layer_1-2" data-name="Layer 1">
    <path fill="#fff" d="m152.39,71.73v8.93c-.09.43-.22.85-.25,1.29-.74,10.63-3.55,20.7-8.7,30.01-11.85,21.46-29.85,34.6-53.97,39.23-2.91.56-5.87.81-8.81,1.2h-8.93c-.38-.08-.76-.22-1.15-.24-10.68-.72-20.8-3.54-30.16-8.71C18.97,131.58,5.83,113.57,1.2,89.46c-.56-2.9-.81-5.86-1.2-8.8,0-2.98,0-5.95,0-8.93.09-.43.22-.85.25-1.29.74-10.63,3.55-20.7,8.7-30.01C20.8,18.98,38.81,5.84,62.92,1.2,65.83.64,68.79.39,71.73,0c2.98,0,5.95,0,8.93,0,.38.09.76.22,1.15.25,9.24.65,18.11,2.82,26.42,6.88,23.57,11.52,37.96,30.16,42.97,55.95.55,2.85.8,5.77,1.2,8.65Zm-34.35-45.45C93.33,4.76,52.09,4.68,27,33.22c-23.9,27.2-18.93,64.97-.68,84.77,30.57-30.57,61.15-61.15,91.72-91.72Zm8.08,8.04c-30.59,30.59-61.19,61.19-91.77,91.78,23.33,20.43,62.86,22.11,88.79-4.48,24.91-25.54,23.24-64.33,2.99-87.29Z"/>
  </g>
</svg>