<?xml version="1.0" encoding="UTF-8"?>
<svg id="Layer_2" data-name="Layer 2" xmlns="http://www.w3.org/2000/svg" viewBox="0 0 143.41 149.58">
  <g id="Layer_1-2" data-name="Layer 1">
    <g>
      <path fill="#fff" d="m3.07,149.58c-1.93-.85-3.25-2.14-3.05-4.43.17-1.9,1.51-3.28,3.47-3.58.62-.1,1.26-.09,1.89-.09,44.22,0,88.43,0,132.65,0,.39,0,.78-.01,1.17,0,2.26.12,3.79,1.37,4.15,3.38.35,1.96-.58,3.52-2.65,4.48-.13.06-.24.16-.35.24H3.07Z"/>
      <path fill="#fff" d="m126.67,25.94c-.29,7.2-2.86,13.32-7.91,18.37-21.78,21.79-43.56,43.58-65.38,65.33-.78.77-1.93,1.38-3,1.62-12.47,2.78-24.96,5.49-37.45,8.19-4.08.88-6.59-1.64-5.7-5.72,2.7-12.44,5.39-24.89,8.18-37.31.26-1.14,1.07-2.29,1.92-3.15C38.87,51.6,60.45,29.96,82.02,8.31c2.39-2.4,5-4.45,8.07-5.92,14.04-6.71,31.44,1.33,35.34,16.4.6,2.34.84,4.77,1.24,7.16ZM50.03,101.48c19.23-19.45,38.21-38.65,57.06-57.71-7.96-7.94-16.2-16.18-24.23-24.19-19.02,19.02-38.17,38.17-57.05,57.05,7.91,8.11,15.95,16.37,24.22,24.86ZM88.44,13.43c8.41,8.19,16.76,16.32,25.12,24.46,6.6-5.8,6.49-17.89-.4-24.68-7.55-7.43-19.1-6.02-24.71.21Zm-46.85,91.38c-6.59-6.6-13.11-13.11-19.69-19.69-1.82,8.29-3.66,16.67-5.55,25.26,8.67-1.91,17-3.75,25.24-5.57Z"/>
    </g>
  </g>
</svg>