<?xml version="1.0" encoding="UTF-8"?>
<svg id="Layer_2" data-name="Layer 2" xmlns="http://www.w3.org/2000/svg" viewBox="0 0 146.32 146.62">
  <g id="Layer_1-2" data-name="Layer 1">
    <g>
      <path fill="#fff" d="m36.58,10.47c0-1.9-.03-3.54,0-5.17C36.66,2.25,38.94-.03,41.86,0c2.84.03,5.08,2.29,5.16,5.26.04,1.68,0,3.36,0,5.12h52.26c0-1.52,0-3.08,0-4.63.02-3.37,2.13-5.71,5.16-5.75,3.09-.04,5.27,2.35,5.29,5.79,0,1.47,0,2.94,0,4.68.62,0,1.19,0,1.76,0,6.2,0,12.41-.01,18.61,0,9.41.03,16.19,6.77,16.2,16.18.02,34.58.02,69.16,0,103.74,0,9.41-6.78,16.21-16.16,16.22-37.99.02-75.98.02-113.97,0-9.38,0-16.16-6.81-16.16-16.21C0,95.81,0,61.23.01,26.65c0-9.38,6.81-16.15,16.2-16.18,6.15-.02,12.3,0,18.45,0,.59,0,1.17,0,1.92,0ZM10.45,52.44v1.67c0,25.31,0,50.61,0,75.92,0,4.11,2.01,6.12,6.11,6.12,37.71,0,75.43,0,113.14,0,4.2,0,6.15-1.98,6.15-6.24,0-25.25,0-50.5,0-75.75,0-.57,0-1.15,0-1.71H10.45Zm.01-10.67h125.39c0-4.91,0-9.7,0-14.5,0-4.42-1.93-6.33-6.38-6.33-37.55,0-75.1,0-112.65,0-.49,0-.98-.02-1.47.01-2.63.18-4.81,2.22-4.86,4.85-.1,5.28-.03,10.57-.03,15.97Z"/>
      <path fill="#fff" d="m63.01,97.57c4.05-3.48,8.05-6.91,12.05-10.34,6.85-5.89,13.7-11.78,20.56-17.66,2.54-2.18,5.73-2.1,7.71.15,1.98,2.26,1.7,5.52-.8,7.67-12.04,10.37-24.09,20.73-36.16,31.06-2.52,2.16-5.25,2.04-7.58-.27-5.1-5.06-10.17-10.15-15.23-15.26-2.2-2.23-2.25-5.36-.21-7.47,2.07-2.15,5.31-2.15,7.58.09,3.64,3.59,7.24,7.23,10.86,10.85.38.38.77.73,1.24,1.17Z"/>
    </g>
  </g>
</svg>