<!DOCTYPE svg PUBLIC "-//W3C//DTD SVG 1.1//EN" "http://www.w3.org/Graphics/SVG/1.1/DTD/svg11.dtd">
<!-- Uploaded to: SVG Repo, www.svgrepo.com, Transformed by: SVG Repo Mixer Tools -->
<svg height="64px" width="64px" version="1.1" id="Capa_1" xmlns="http://www.w3.org/2000/svg" xmlns:xlink="http://www.w3.org/1999/xlink" viewBox="0 0 265.54 265.54" xml:space="preserve" fill="#000000">
<g id="SVGRepo_bgCarrier" stroke-width="0"/>
<g id="SVGRepo_tracerCarrier" stroke-linecap="round" stroke-linejoin="round"/>
<g id="SVGRepo_iconCarrier"> <g> <path style="fill:#000002;" d="M204.984,94.941c0.022-0.233,0.036-0.47,0.036-0.709V72.25C205.02,32.411,172.608,0,132.77,0 c-39.839,0-72.25,32.411-72.25,72.25v21.982c0,0.239,0.014,0.476,0.036,0.709c-9.468,0.21-17.11,7.963-17.11,17.48v135.617 c0,9.649,7.851,17.5,17.5,17.5h143.649c9.649,0,17.5-7.851,17.5-17.5V112.422C222.094,102.904,214.452,95.151,204.984,94.941z M75.519,72.25c0-31.567,25.682-57.25,57.25-57.25c31.568,0,57.25,25.683,57.25,57.25v21.982c0,0.233,0.014,0.462,0.035,0.689 H75.485c0.021-0.228,0.035-0.456,0.035-0.689V72.25z M207.094,248.039c0,1.355-1.145,2.5-2.5,2.5H60.945 c-1.355,0-2.5-1.145-2.5-2.5V112.422c0-1.355,1.145-2.5,2.5-2.5h143.649c1.355,0,2.5,1.145,2.5,2.5V248.039z"/> <path style="fill:#000002;" d="M145.267,146.724h-24.994c-9.098,0-16.5,7.402-16.5,16.5v11.421c0,6.759,3.127,15.556,9.096,19.289 c1.031,0.704,3.004,4.476,3.004,8.277v6.798c0,9.098,7.402,16.5,16.5,16.5h0.795c9.098,0,16.5-7.402,16.5-16.5v-6.798 c0-3.802,1.973-7.573,2.996-8.272c5.977-3.737,9.104-12.535,9.104-19.294v-11.421C161.767,154.126,154.365,146.724,145.267,146.724 z M148.767,174.645c0,3.802-1.973,7.573-2.997,8.273c-5.976,3.738-9.103,12.535-9.103,19.294v6.798c0,1.897-1.603,3.5-3.5,3.5 h-0.795c-1.897,0-3.5-1.603-3.5-3.5v-6.798c0-6.759-3.127-15.557-9.095-19.289c-1.032-0.704-3.004-4.476-3.004-8.277v-11.421 c0-1.897,1.603-3.5,3.5-3.5h24.994c1.897,0,3.5,1.603,3.5,3.5V174.645z"/> </g> </g>
</svg>