<svg id="calendar2-minus" xmlns="http://www.w3.org/2000/svg" width="14" height="14" viewBox="0 0 14 14">
  <path id="Path_41" data-name="Path 41" d="M12.375,22.938a.437.437,0,0,1,.438-.437h3.5a.438.438,0,0,1,0,.875h-3.5A.437.437,0,0,1,12.375,22.938Z" transform="translate(-7.563 -13.75)" fill="#747474" fill-rule="evenodd"/>
  <path id="Path_42" data-name="Path 42" d="M12.25,3.125H1.75A.875.875,0,0,0,.875,4v9.625a.875.875,0,0,0,.875.875h10.5a.875.875,0,0,0,.875-.875V4A.875.875,0,0,0,12.25,3.125ZM1.75,2.25A1.75,1.75,0,0,0,0,4v9.625a1.75,1.75,0,0,0,1.75,1.75h10.5A1.75,1.75,0,0,0,14,13.625V4a1.75,1.75,0,0,0-1.75-1.75Z" transform="translate(0 -1.375)" fill="#747474" fill-rule="evenodd"/>
  <path id="Path_43" data-name="Path 43" d="M7.188,0a.437.437,0,0,1,.438.438V.875a.438.438,0,0,1-.875,0V.438A.437.437,0,0,1,7.188,0Zm7.875,0A.437.437,0,0,1,15.5.438V.875a.438.438,0,0,1-.875,0V.438A.437.437,0,0,1,15.063,0Z" transform="translate(-4.125 0)" fill="#747474" fill-rule="evenodd"/>
  <path id="Path_44" data-name="Path 44" d="M5.625,8.313a.437.437,0,0,1,.438-.437h8.75a.437.437,0,0,1,.438.438v.875a.437.437,0,0,1-.437.438H6.063a.437.437,0,0,1-.437-.437Z" transform="translate(-3.438 -4.813)" fill="#747474"/>
</svg>
