<?xml version="1.0" encoding="UTF-8"?>
<svg id="Layer_2" data-name="Layer 2" xmlns="http://www.w3.org/2000/svg" viewBox="0 0 153.98 123.93">
  <g id="Layer_1-2" data-name="Layer 1">
    <g>
      <path fill="#fff" d="m52.09,42.31c-4-4-7.97-7.96-11.93-11.92-2.23-2.23-4.48-4.43-6.68-6.69-4.97-5.11-5.71-12.17-1.88-17.77C35.36.45,42.23-1.51,48.69,1.23c16.32,6.94,32.61,13.93,48.9,20.95,1.17.5,2.16.59,3.39.16,4.93-1.72,9.95-3.18,14.83-5.01,5.01-1.88,10.01-2.09,15.21-1.03,4.62.94,9.33,1.45,13.94,2.43,8.71,1.84,11.96,12.26,5.92,18.78-2.05,2.22-4.1,4.49-6.45,6.37-2.28,1.82-4.77,3.59-7.46,4.64-32.42,12.58-64.84,25.13-97.37,37.44-9.66,3.66-18.69,2.29-26.14-5.6-3.2-3.39-6.59-6.59-9.87-9.91-3.79-3.83-4.63-8.75-2.31-13.13,2.3-4.34,6.9-6.37,12.19-5.37,4.14.78,8.27,1.61,12.41,2.4,2.64.51,5.18.07,7.49-1.22,6.05-3.37,12.04-6.83,18.05-10.26.21-.12.37-.31.66-.56Zm-21.72,37.68c2.3-.57,4.68-.9,6.87-1.74,29.84-11.41,59.61-23,89.5-34.29,6.72-2.54,12.99-5.4,17.52-11.18.04-.05.09-.09.13-.13,1.11-1.05,1.87-2.22,1.34-3.85-.52-1.6-1.79-2.18-3.29-2.43-4.78-.79-9.58-1.49-14.34-2.39-3.14-.59-6.09-.26-9.08.79-5.82,2.03-11.7,3.87-17.52,5.9-1.79.62-3.37.52-5.09-.23-9.34-4.06-18.72-8.06-28.08-12.07-7.57-3.25-15.13-6.52-22.72-9.73-3.97-1.68-7.87.49-8.3,4.56-.21,2.04.68,3.62,2.09,5.03,7.28,7.24,14.54,14.5,21.79,21.78,2.37,2.38,2.2,5.25-.52,6.83-7.95,4.61-15.91,9.19-23.96,13.62-3.74,2.05-7.86,2.62-12.1,1.83-4.14-.77-8.29-1.56-12.41-2.42-1.57-.33-2.93-.25-3.75,1.29-.85,1.58,0,2.74,1.1,3.83,3.44,3.42,6.91,6.81,10.28,10.3,2.88,2.98,6.28,4.55,10.56,4.7Z"/>
      <path fill="#fff" d="m74.93,123.93c-20.91,0-41.83,0-62.74,0-.69,0-1.39.02-2.08-.04-2.15-.18-3.62-1.72-3.69-3.8-.07-2.15,1.41-3.89,3.57-4.15.44-.05.88-.03,1.32-.03,42.39,0,84.79,0,127.18,0,3.2,0,4.98,1.52,4.92,4.15-.05,2.02-1.45,3.59-3.47,3.81-.75.08-1.51.06-2.26.06-20.91,0-41.83,0-62.74,0Z"/>
    </g>
  </g>
</svg>