<?xml version="1.0" encoding="UTF-8"?>
<svg id="Layer_2" data-name="Layer 2" xmlns="http://www.w3.org/2000/svg" viewBox="0 0 133.42 123.93">
  <g id="Layer_1-2" data-name="Layer 1">
    <g>
      <path fill="#fff" d="m49.2,37.71c-.34-4.14-.66-8-.97-11.85-.4-5.03-.93-10.05-1.15-15.08-.21-5.04,3.13-9.23,7.99-10.48.16-.04.32-.09.48-.13,5.55-1.09,14.03,3.2,16.41,8.34,6.19,13.41,12.35,26.84,18.59,40.23.37.79,1.2,1.59,2.01,1.9,7,2.72,14.03,5.38,21.08,7.96,3.63,1.33,6.65,3.4,9.1,6.4,2.56,3.13,5.25,6.14,7.87,9.23,2.97,3.5,3.66,7.43,1.72,11.6-1.91,4.09-5.25,6.22-9.79,6.14-4.75-.08-9.59.23-14.2-.62-4.11-.75-7.99-2.82-11.95-4.37-27.7-10.89-55.4-21.79-83.1-32.69-6.6-2.6-11.13-7.09-12.8-14.13-.33-1.39-.42-2.85-.44-4.29C-.02,31.77,0,27.66.02,23.56c.03-5.24,2.83-9.12,7.42-10.35,4.43-1.18,8.74.74,11.37,5.09,2,3.32,3.99,6.64,5.98,9.97,1.39,2.33,3.35,4.04,5.96,4.74,6.02,1.61,12.09,3.09,18.45,4.7ZM7.15,30.07c0,1.77,0,3.55,0,5.32,0,5.86,2.7,9.89,8.14,12.04,28.3,11.17,56.67,22.17,84.88,33.57,7.14,2.89,14.22,4.57,21.88,3.96,1.67-.13,3.08-.46,3.84-2.06.8-1.68.21-3.08-.94-4.4-2.58-2.96-5.16-5.93-7.66-8.97-1.63-1.98-3.61-3.35-6.01-4.24-7.61-2.82-15.18-5.75-22.81-8.53-1.81-.66-2.91-1.74-3.7-3.48-5.9-12.93-12-25.78-17.74-38.78-1.62-3.66-3.84-5.91-7.61-7.05-3.24-.97-5.6.66-5.31,4.05.84,9.88,1.68,19.76,2.51,29.64.31,3.63-1.66,5.32-5.17,4.44-7.07-1.76-14.14-3.54-21.22-5.31-5.14-1.28-9.08-4.15-11.77-8.75-1.87-3.2-3.8-6.37-5.71-9.55-1.04-1.73-2.21-2.33-3.65-1.84-1.64.56-2,1.87-1.97,3.45.04,2.16.01,4.32.01,6.48Z"/>
      <path fill="#fff" d="m67.33,123.93c-18.36,0-36.72,0-55.08,0-.61,0-1.22.02-1.82-.04-1.89-.16-3.18-1.51-3.24-3.35-.06-1.9,1.24-3.42,3.13-3.65.38-.05.77-.03,1.16-.03,37.22,0,74.44,0,111.66,0,2.81,0,4.38,1.34,4.32,3.65-.05,1.78-1.27,3.16-3.05,3.36-.66.07-1.33.05-1.99.05-18.36,0-36.72,0-55.08,0Z"/>
    </g>
  </g>
</svg>