<svg xmlns="http://www.w3.org/2000/svg" width="25.873" height="27.184" viewBox="0 0 25.873 27.184">
  <g id="Group_321" data-name="Group 321" transform="translate(-26.423 -265.458)">
    <g id="hotel" transform="translate(24.173 270.39)">
      <path id="Path_34" data-name="Path 34" d="M9.126,15.982A1.018,1.018,0,1,1,8.107,17a1.018,1.018,0,0,1,1.018-1.018m0-1.357A2.376,2.376,0,1,0,11.5,17a2.376,2.376,0,0,0-2.376-2.376Z" transform="translate(-1.785 -4.386)"/>
      <path id="Path_35" data-name="Path 35" d="M18.679,10.823H12.964a1.429,1.429,0,0,0-1.429,1.429v4.286H3.679V8.394L12.25,3.779l.335-1.443a.714.714,0,0,0-.671,0l-9.286,5a.714.714,0,0,0-.378.629V22.251H3.679V17.965H20.821v4.286H22.25V14.394a3.571,3.571,0,0,0-3.571-3.571Zm-5.714,5.714V12.251h5.714a2.143,2.143,0,0,1,2.143,2.143v2.143Z" transform="translate(0)"/>
    </g>
    <g id="time-restore" transform="matrix(-0.883, -0.469, 0.469, -0.883, 46.568, 282.913)">
      <path id="Path_128" data-name="Path 128" d="M8.134,0a5.883,5.883,0,0,1,4.321,1.779A5.883,5.883,0,0,1,14.234,6.1a5.883,5.883,0,0,1-1.779,4.321A5.883,5.883,0,0,1,8.134,12.2a5.951,5.951,0,0,1-4.321-1.779L4.8,9.437a4.487,4.487,0,0,0,3.336,1.4,4.565,4.565,0,0,0,3.352-1.382A4.565,4.565,0,0,0,12.868,6.1a4.565,4.565,0,0,0-1.382-3.352A4.565,4.565,0,0,0,8.134,1.366,4.565,4.565,0,0,0,4.782,2.748,4.565,4.565,0,0,0,3.4,6.1H5.433L2.669,8.833l-.032-.1L0,6.1H2.033A5.883,5.883,0,0,1,3.813,1.779,5.883,5.883,0,0,1,8.134,0ZM7.467,3.4H8.483v2.86l2.351,1.43-.477.826L7.467,6.768Z"/>
    </g>
  </g>
</svg>
