<?xml version="1.0" encoding="UTF-8"?>
<svg id="Layer_1" xmlns="http://www.w3.org/2000/svg" version="1.1" viewBox="0 0 25.3 19.8">
  <!-- Generator: Adobe Illustrator 29.1.0, SVG Export Plug-In . SVG Version: 2.1.0 Build 142)  -->
  <g id="bed-outline">
    <g id="Path_117">
      <path d="M21.9,9.7H3.5c-.4,0-.7-.3-.7-.7V3c0-1.7,1.4-3,3-3h13.8c1.7,0,3,1.3,3,3v6c0,.4-.3.7-.7.7ZM4.2,8.3h17V3c0-.9-.7-1.6-1.6-1.6H5.8c-.9,0-1.6.7-1.6,1.6v5.3Z"/>
    </g>
    <g id="Path_118">
      <path d="M24.6,19.8c-.4,0-.7-.3-.7-.7v-6.4c0-1.6-1.3-3-3-3H4.4c-1.6,0-3,1.3-3,3v6.4c0,.4-.3.7-.7.7s-.7-.3-.7-.7v-6.4c0-2.4,2-4.4,4.4-4.4h16.6c2.4,0,4.4,2,4.4,4.4v6.4c0,.4-.3.7-.7.7Z"/>
    </g>
    <g id="Path_119">
      <path d="M24.6,19.8c-.4,0-.7-.3-.7-.7v-.5c0-.4-.3-.7-.7-.7H2.1c-.4,0-.7.3-.7.7v.5c0,.4-.3.7-.7.7s-.7-.3-.7-.7v-.5c0-1.1.9-2.1,2.1-2.1h21.2c1.1,0,2.1.9,2.1,2.1v.5c0,.4-.3.7-.7.7Z"/>
    </g>
    <g id="Path_120">
      <path d="M12.7,9.7c-.4,0-.7-.3-.7-.7v-.9c0-.6-.5-1.1-1.1-1.1h-4.6c-.6,0-1.1.5-1.1,1.1v.9c0,.4-.3.7-.7.7s-.7-.3-.7-.7v-.9c0-1.4,1.1-2.5,2.5-2.5h4.6c1.4,0,2.5,1.1,2.5,2.5v.9c0,.4-.3.7-.7.7Z"/>
    </g>
    <g id="Path_121">
      <path d="M20.9,9.7c-.4,0-.7-.3-.7-.7v-.9c0-.6-.5-1.1-1.1-1.1h-4.6c-.6,0-1.1.5-1.1,1.1v.9c0,.4-.3.7-.7.7s-.7-.3-.7-.7v-.9c0-1.4,1.1-2.5,2.5-2.5h4.6c1.4,0,2.5,1.1,2.5,2.5v.9c0,.4-.3.7-.7.7Z"/>
    </g>
  </g>
</svg>