<?xml version="1.0" encoding="UTF-8"?>
<svg version="1.1" xmlns="http://www.w3.org/2000/svg" width="2000" height="333">
<path d="M0 0 C0.70511719 0.51304688 1.41023438 1.02609375 2.13671875 1.5546875 C8.33731761 6.49154526 12.4760977 12.95219541 16 20 C16.75023437 19.14277344 17.50046875 18.28554687 18.2734375 17.40234375 C24.29734566 10.62643784 30.1049768 4.62266382 38 0 C38.88816406 -0.53109375 39.77632812 -1.0621875 40.69140625 -1.609375 C57.86214748 -11.04744229 78.7875003 -12.95682815 97.61206055 -7.7644043 C111.06701912 -3.68667349 121.22168406 3.77277693 128.46875 15.9765625 C135.14924111 29.16712403 137.31207511 42.00759001 137.22705078 56.61962891 C137.22648541 57.96098828 137.22680569 59.30234826 137.22793579 60.64370728 C137.22850538 64.25462561 137.21681546 67.86540879 137.20278788 71.47629595 C137.19021431 75.26123892 137.18910483 79.0461856 137.18673706 82.83114624 C137.18054164 89.98486821 137.1641573 97.13852845 137.14403808 104.29222333 C137.12161845 112.442231 137.11067046 120.59224175 137.10064721 128.74227262 C137.07978917 145.49488445 137.04465123 162.24743432 137 179 C132.87406157 179.0498487 128.74824248 179.08592957 124.62207031 179.10986328 C123.22164858 179.11985248 121.82124732 179.13344854 120.42089844 179.15087891 C100.98321403 179.38657123 100.98321403 179.38657123 93 173 C86.77283449 166.73833495 85.70316138 161.34091398 85.71289062 152.85791016 C85.70605759 151.94493164 85.69922455 151.03195313 85.69218445 150.09130859 C85.67861321 148.11123738 85.66954917 146.13113127 85.66447449 144.15102005 C85.65615817 141.00431546 85.63562201 137.85789731 85.61193848 134.71127319 C85.56373791 128.01589169 85.53085309 121.3204809 85.5 114.625 C85.46417837 106.89589006 85.42188895 99.16691785 85.36405945 91.43793869 C85.34421556 88.36124475 85.33571354 85.28466035 85.32775879 82.20791626 C85.78241828 62.93752558 85.78241828 62.93752558 80 45 C74.1242351 39.69748045 69.61334369 39.566475 61.89453125 39.734375 C51.70846023 40.42911204 44.67394754 45.46005581 38 53 C29.56179122 65.2589428 25.70760134 79.80214029 25.69702148 94.54882812 C25.68436249 95.89219238 25.68436249 95.89219238 25.67144775 97.26269531 C25.64591835 100.18555299 25.63359231 103.1083103 25.62109375 106.03125 C25.60490059 108.07483704 25.58771871 110.11841647 25.56959534 112.1619873 C25.52412568 117.51388029 25.4891974 122.86578365 25.45739746 128.21777344 C25.40530034 136.8115613 25.34047258 145.40523813 25.26918221 153.99888611 C25.24632968 157.00026436 25.23007923 160.00162825 25.21446228 163.00305176 C25.20106254 164.83081222 25.18744834 166.65857113 25.17358398 168.48632812 C25.17097061 169.32369507 25.16835724 170.16106201 25.16566467 171.02380371 C25.1136463 176.7727074 25.1136463 176.7727074 24 179 C16.89755001 179.02526787 9.79511152 179.04283201 2.69262695 179.05493164 C0.27432828 179.05997349 -2.14396733 179.06680678 -4.56225586 179.07543945 C-8.02979283 179.08751157 -11.49728966 179.09322963 -14.96484375 179.09765625 C-16.05337143 179.10281754 -17.14189911 179.10797882 -18.26341248 179.11329651 C-19.76485558 179.11340981 -19.76485558 179.11340981 -21.29663086 179.11352539 C-22.62566689 179.11685631 -22.62566689 179.11685631 -23.98155212 179.12025452 C-26 179 -26 179 -27 178 C-27.10327748 176.5873597 -27.13794139 175.169629 -27.14476013 173.75323486 C-27.15165863 172.83667618 -27.15855713 171.92011749 -27.16566467 170.9757843 C-27.16827805 169.96187119 -27.17089142 168.94795807 -27.17358398 167.90332031 C-27.180271 166.84140976 -27.18695801 165.77949921 -27.19384766 164.68540955 C-27.20794067 162.36857521 -27.21982101 160.05172664 -27.22979546 157.73487091 C-27.2461753 154.05982903 -27.26941763 150.38489071 -27.29469299 146.7098999 C-27.36551194 136.256685 -27.42530683 125.80342509 -27.47680664 115.35009766 C-27.50876131 108.96221875 -27.55009169 102.5744541 -27.59700203 96.1866684 C-27.61294034 93.75802437 -27.62529924 91.32935397 -27.63390923 88.90067291 C-26.78423074 65.38619662 -26.78423074 65.38619662 -35 44 C-38.98356565 40.17902887 -43.93962981 39.23334317 -49.3203125 38.90625 C-57.74936467 39.20114395 -65.0422345 42.00428695 -71 48 C-82.71116455 61.93604132 -87.09752427 79.13929026 -87.18945312 97.04052734 C-87.19774643 97.91776459 -87.20603973 98.79500183 -87.21458435 99.69882202 C-87.23189953 101.59158972 -87.24708908 103.48437783 -87.26036072 105.37717819 C-87.28148278 108.36890858 -87.30849238 111.36053516 -87.33703613 114.35220337 C-87.40666842 121.77434072 -87.46642837 129.19655109 -87.52606201 136.61877441 C-87.57690385 142.9063341 -87.63166391 149.19383467 -87.69187927 155.4813118 C-87.7185218 158.43563353 -87.73928621 161.38996068 -87.7598877 164.34432983 C-87.7764797 166.14150258 -87.79335055 167.93867278 -87.81054688 169.73583984 C-87.81473129 170.56281372 -87.81891571 171.3897876 -87.82322693 172.24182129 C-87.88614242 177.88614242 -87.88614242 177.88614242 -89 179 C-90.55999048 179.09846967 -92.12440544 179.12798618 -93.6875 179.12939453 C-94.68523437 179.13254669 -95.68296875 179.13569885 -96.7109375 179.13894653 C-97.79632812 179.1369223 -98.88171875 179.13489807 -100 179.1328125 C-101.10601563 179.13376923 -102.21203125 179.13472595 -103.3515625 179.13571167 C-105.69531308 179.13639367 -108.03906553 179.13453804 -110.3828125 179.13037109 C-113.98441788 179.12502314 -117.58589853 179.13031547 -121.1875 179.13671875 C-123.45833361 179.13605797 -125.72916714 179.13477682 -128 179.1328125 C-129.08539062 179.13483673 -130.17078125 179.13686096 -131.2890625 179.13894653 C-132.28679687 179.13579437 -133.28453125 179.13264221 -134.3125 179.12939453 C-135.19550781 179.12859894 -136.07851562 179.12780334 -136.98828125 179.12698364 C-139 179 -139 179 -140 178 C-140.12929188 176.31364398 -140.18859429 174.62189917 -140.22119141 172.9309082 C-140.25587524 171.26521538 -140.25587524 171.26521538 -140.29125977 169.56587219 C-140.31115967 168.32339218 -140.33105957 167.08091217 -140.3515625 165.80078125 C-140.37530981 164.46603729 -140.3991572 163.13129511 -140.4230957 161.79655457 C-140.48693153 158.08660007 -140.54138512 154.37656173 -140.59253693 150.66641235 C-140.61410725 149.10233796 -140.63623385 147.53827114 -140.65892792 145.97421265 C-141.12597662 113.7362622 -140.95128551 81.50493413 -140.65892792 49.26595688 C-140.62489183 45.48799308 -140.59254231 41.71001739 -140.56036377 37.93203735 C-140.50841532 31.94211918 -140.45020495 25.95229397 -140.3866272 19.96248817 C-140.36335206 17.72639774 -140.34156968 15.49029125 -140.32131958 13.25417137 C-140.29281734 10.18694879 -140.25797158 7.1198673 -140.22119141 4.05273438 C-140.21386805 3.1422852 -140.20654469 2.23183603 -140.1989994 1.29379749 C-140.11445135 -4.88554865 -140.11445135 -4.88554865 -139 -6 C-135.01316655 -6.24400131 -131.02248351 -6.22861641 -127.02880859 -6.24023438 C-125.03601031 -6.24982667 -123.04335311 -6.28096573 -121.05078125 -6.3125 C-111.11850483 -6.35267099 -102.9095885 -5.43803716 -95 1 C-91.66344801 5.17068999 -90.22333171 8.90278454 -89 14 C-88.05125 13.175 -87.1025 12.35 -86.125 11.5 C-85.47917969 10.95214844 -84.83335938 10.40429688 -84.16796875 9.83984375 C-82.70112599 8.59500962 -81.24560929 7.33672575 -79.80078125 6.06640625 C-58.32605311 -12.1427434 -23.67262028 -17.65849512 0 0 Z " fill="#0093CE" transform="translate(1863,84)"/>
<path d="M0 0 C1.63511657 0.00051991 3.27023377 -0.00000284 4.90534973 -0.00151062 C8.32379558 -0.00142125 11.7420039 0.00892971 15.16040039 0.02709961 C19.50275053 0.04969491 23.84475163 0.05034322 28.18714428 0.04358196 C31.56330872 0.04020892 34.93939629 0.04693559 38.31554604 0.0567112 C39.91442777 0.06051312 41.51331815 0.06173266 43.1122036 0.06012535 C68.17238104 0.05591502 92.13844916 4.46181457 110.61328125 22.671875 C123.4804453 36.02349553 127.72846956 51.86285147 127.62866211 70.07080078 C127.16510208 88.01042078 120.64571161 101.60330656 108.20703125 114.36328125 C107.67335937 114.935625 107.1396875 115.50796875 106.58984375 116.09765625 C105.51070573 117.23426316 104.36673575 118.30900444 103.20703125 119.36328125 C102.54703125 119.36328125 101.88703125 119.36328125 101.20703125 119.36328125 C101.20703125 120.02328125 101.20703125 120.68328125 101.20703125 121.36328125 C102.06425781 121.59917969 102.92148438 121.83507812 103.8046875 122.078125 C107.57793951 123.50338322 110.50338362 125.46010406 113.64453125 127.92578125 C114.21437744 128.37195801 114.78422363 128.81813477 115.37133789 129.27783203 C127.97308394 139.43188629 135.08434451 154.42990521 137.20703125 170.36328125 C139.05019261 191.60710033 134.93568805 210.68671066 121.45703125 227.73828125 C111.13477532 239.44409257 97.56728678 246.67809151 82.76953125 251.17578125 C81.82376221 251.46811646 81.82376221 251.46811646 80.85888672 251.76635742 C66.27047288 255.88853812 51.31714719 255.63513327 36.3046875 255.55859375 C34.12894319 255.55485523 31.95319717 255.55201223 29.77745056 255.55001831 C24.10091353 255.54244788 18.42448179 255.52285737 12.74798584 255.50061035 C6.93552066 255.48000854 1.12303818 255.47098619 -4.68945312 255.4609375 C-16.05733747 255.43960414 -27.42514429 255.40554955 -38.79296875 255.36328125 C-38.88425176 225.43448505 -38.95502428 195.50569355 -38.99723007 165.5767881 C-39.00223279 162.04207725 -39.00741009 158.50736668 -39.01269531 154.97265625 C-39.01426918 153.91712635 -39.01426918 153.91712635 -39.01587483 152.84027261 C-39.0332722 141.45161456 -39.06480618 130.06303741 -39.10157993 118.67442733 C-39.13900802 106.98554548 -39.16120854 95.29670595 -39.16932273 83.60776663 C-39.17453869 77.0435502 -39.18680313 70.47951717 -39.21588898 63.9153595 C-39.2430458 57.73646582 -39.25141304 51.55783105 -39.24539948 45.37888336 C-39.24649957 43.11174869 -39.2544516 40.84460533 -39.26979065 38.57752228 C-39.28972218 35.47962767 -39.2848958 32.38270769 -39.27398682 29.28479004 C-39.28563818 28.38982897 -39.29728955 27.49486791 -39.30929399 26.57278681 C-39.24204856 19.49707782 -37.31653107 14.35970994 -32.75 8.9375 C-32.04230469 8.31488281 -31.33460937 7.69226563 -30.60546875 7.05078125 C-29.91066406 6.41527344 -29.21585938 5.77976562 -28.5 5.125 C-19.65821877 -0.62917509 -10.10915579 -0.06389097 0 0 Z M13.20703125 49.36328125 C11.32903089 52.44586619 10.96148817 54.72792392 10.97998047 58.31542969 C10.98013153 59.29614441 10.98028259 60.27685913 10.98043823 61.28729248 C10.9907608 62.33846252 11.00108337 63.38963257 11.01171875 64.47265625 C11.01454865 65.55460266 11.01737854 66.63654907 11.02029419 67.75128174 C11.03148516 71.20539429 11.05658805 74.65924713 11.08203125 78.11328125 C11.09206244 80.45572542 11.10118805 82.79817366 11.109375 85.140625 C11.13142095 90.88159896 11.16488791 96.62242155 11.20703125 102.36328125 C17.43254455 102.48763846 23.65732189 102.57797733 29.88378906 102.63793945 C31.99817514 102.662957 34.11247584 102.69698217 36.2265625 102.74047852 C39.28016317 102.80169457 42.33261264 102.82961917 45.38671875 102.8515625 C46.78577957 102.89027214 46.78577957 102.89027214 48.21310425 102.92976379 C55.84494802 102.93296561 62.27390212 100.79887117 68.0920105 95.7167511 C74.32101733 89.27475242 76.44133441 81.64899001 76.70703125 72.86328125 C76.43470476 63.55722774 74.01564424 55.86241183 67.20703125 49.36328125 C55.25606836 41.12311962 23.93288063 37.96706629 13.20703125 49.36328125 Z M15.20703125 146.36328125 C10.27946268 152.69241533 10.68360326 158.72776616 10.81640625 166.515625 C10.82206604 167.77089493 10.82772583 169.02616486 10.83355713 170.31947327 C10.85209071 173.63578445 10.88794358 176.95096832 10.93237305 180.26696777 C10.97349846 183.6589999 10.99160471 187.0511491 11.01171875 190.44335938 C11.05573031 197.08364167 11.12260221 203.72339646 11.20703125 210.36328125 C17.98383591 210.46540137 24.7604393 210.53504657 31.5378418 210.58300781 C33.83934952 210.60301952 36.14080707 210.63023756 38.44213867 210.66503906 C41.76623987 210.71401824 45.08966401 210.73635526 48.4140625 210.75390625 C49.42910355 210.77455139 50.44414459 210.79519653 51.48994446 210.81646729 C61.36273788 210.81951039 70.20630688 208.34908286 77.484375 201.4296875 C85.54860453 191.75626931 86.23849667 180.41529201 85.20703125 168.36328125 C83.3589729 159.64623494 78.06359613 153.35408667 71.14453125 147.98828125 C61.86691091 142.85598064 51.76890171 143.15103658 41.4465332 143.12304688 C39.27842111 143.11332113 37.11125072 143.08222489 34.94335938 143.05078125 C24.66817597 142.84788357 24.66817597 142.84788357 15.20703125 146.36328125 Z " fill="#05307B" transform="translate(38.79296875,6.63671875)"/>
<path d="M0 0 C0.43570312 -0.54269531 0.87140625 -1.08539063 1.3203125 -1.64453125 C6.19870965 -7.50494341 10.32599325 -10.77788609 18 -12 C20.34911415 -12.08028946 22.70031669 -12.10765823 25.05078125 -12.09765625 C25.70958786 -12.0962413 26.36839447 -12.09482635 27.04716492 -12.09336853 C29.13565762 -12.087805 31.22404011 -12.07525947 33.3125 -12.0625 C34.73502449 -12.05748028 36.15755066 -12.0529182 37.58007812 -12.04882812 C41.05342077 -12.03784757 44.52669961 -12.02060835 48 -12 C48.07025256 11.3231156 48.12306752 34.64621361 48.15543652 57.96941376 C48.17086916 68.80012053 48.19188939 79.63076135 48.22631836 90.46142578 C48.25633145 99.90749073 48.27560115 109.35350789 48.28226548 118.7996192 C48.28615766 123.79575872 48.29522875 128.79176157 48.31719017 133.78785706 C48.33774399 138.50249357 48.34379613 143.21693876 48.33932304 147.93161583 C48.34013988 149.65034212 48.3459919 151.36907566 48.35761642 153.08776283 C48.51905133 178.21529649 42.78587557 200.27876911 24.8125 218.75 C12.71968326 230.70729835 -2.6748668 237.74692207 -19 242 C-19.96280884 242.26925293 -19.96280884 242.26925293 -20.94506836 242.54394531 C-29.12116922 244.53433851 -37.43676799 244.37215791 -45.80053711 244.37060547 C-48.4009148 244.37493903 -50.99953501 244.41123265 -53.59960938 244.44921875 C-68.95246183 244.55357575 -83.73074632 242.24913337 -98.0625 236.5625 C-99.23389526 236.11571899 -99.23389526 236.11571899 -100.42895508 235.65991211 C-106.12517078 233.44916589 -111.65921079 230.97930915 -117 228 C-116.46351298 221.46213281 -114.20387541 215.95666997 -111.6875 209.9375 C-111.29626953 208.97005859 -110.90503906 208.00261719 -110.50195312 207.00585938 C-107.58302259 199.9336247 -104.76927102 193.15387085 -98 189 C-90.86736922 187.37637736 -85.36739093 188.86179734 -78.4375 190.875 C-60.21228597 196.00853296 -39.87919725 198.64311348 -22.4296875 189.6796875 C-14.46785519 184.8710561 -9.88732238 178.56432712 -7.5234375 169.609375 C-6.68528859 165.43114013 -6.26224084 161.25011014 -6 157 C-6.66644531 157.45890625 -7.33289062 157.9178125 -8.01953125 158.390625 C-26.1909487 170.48796025 -46.833069 172.35903084 -67.96435547 168.41040039 C-74.358342 167.07639785 -80.16613 164.95324539 -86 162 C-86.98355469 161.50757813 -87.96710938 161.01515625 -88.98046875 160.5078125 C-107.84607044 150.30623229 -121.40207228 132.78777632 -127.81396484 112.41357422 C-136.49542579 81.95318813 -135.19704179 49.96841979 -119.8125 21.8125 C-108.71352925 3.93757118 -93.31453025 -8.42755377 -72.625 -13.8125 C-46.34190822 -19.92054246 -22.05564607 -15.2014299 0 0 Z M-67 41 C-76.44547269 51.82293745 -78.847548 67.07142821 -78 81 C-76.5950476 92.94854017 -73.19351029 105.61761509 -64.125 114.125 C-54.28418434 121.70664008 -44.0444478 122.67468898 -32 122 C-24.42772486 120.70877389 -18.18278601 116.85903616 -13.30859375 110.94921875 C-3.8216733 96.80205668 -2.9741309 77.81539561 -5.66015625 61.45703125 C-7.50229537 52.22929854 -10.79072261 44.06204664 -18.39453125 38.1328125 C-32.92016659 28.80606047 -54.2029896 28.45120747 -67 41 Z " fill="#05307A" transform="translate(1196,89)"/>
<path d="M0 0 C0.72953384 -0.00570007 1.45906769 -0.01140015 2.21070862 -0.01727295 C3.7634231 -0.02674482 5.31615787 -0.03326557 6.86889648 -0.03710938 C9.21310382 -0.04670793 11.55639341 -0.07766253 13.90039062 -0.109375 C23.12408632 -0.1746213 31.54569241 0.10944513 39.69140625 4.890625 C44.6504315 10.2872113 46.944737 16.70544845 46.93666077 23.97406006 C46.93803543 24.93035812 46.9394101 25.88665619 46.94082642 26.87193298 C46.9354335 28.43531151 46.9354335 28.43531151 46.92993164 30.03027344 C46.93007767 31.13301102 46.93022369 32.2357486 46.93037415 33.37190247 C46.92967718 37.01878828 46.92189482 40.6656231 46.9140625 44.3125 C46.91219755 46.84027071 46.91077401 49.36804179 46.90977478 51.89581299 C46.90634605 57.87036369 46.89846359 63.84489248 46.88842529 69.8194344 C46.87724364 76.62229724 46.87174853 83.42516095 46.86672986 90.22803068 C46.85628043 104.21973893 46.83869377 118.21143096 46.81640625 132.203125 C48.74770366 132.06008682 50.67862631 131.91198218 52.609375 131.76171875 C54.22235474 131.6388147 54.22235474 131.6388147 55.86791992 131.51342773 C60.48956864 131.0270391 63.25061303 130.04837737 66.3046875 126.44921875 C68.2597333 123.76628 70.03943458 121.00782282 71.81640625 118.203125 C72.23664063 117.5421582 72.656875 116.88119141 73.08984375 116.20019531 C75.58807953 112.26759111 78.07065189 108.32539885 80.546875 104.37890625 C84.41822689 98.22628487 88.38605061 92.13743148 92.36376953 86.05322266 C92.87278809 85.27382324 93.38180664 84.49442383 93.90625 83.69140625 C94.34831787 83.01634033 94.79038574 82.34127441 95.24584961 81.64575195 C96.83606624 79.34719915 96.83606624 79.34719915 97.61665344 77.1701355 C98.76952299 74.64407091 99.73683709 73.06088021 101.81640625 71.203125 C106.47608338 70.05955003 111.10484793 70.27108866 115.8671875 70.421875 C117.25006329 70.43680741 118.63298157 70.44818973 120.01591492 70.45617676 C123.64533592 70.48663597 127.2721706 70.56513316 130.90057373 70.65380859 C134.60718799 70.73584164 138.31422284 70.77222472 142.02148438 70.8125 C149.28763396 70.89814381 156.55165694 71.0345629 163.81640625 71.203125 C160.54157619 77.31239702 156.99447787 83.12295095 153.08984375 88.84765625 C152.54862381 89.64765549 152.00740387 90.44765472 151.44978333 91.27189636 C149.70058209 93.85559438 147.94612969 96.43567498 146.19140625 99.015625 C144.9779654 100.80513103 143.76483314 102.59484634 142.55200195 104.38476562 C140.12305105 107.96829247 137.69200731 111.5503853 135.25927734 115.13134766 C132.17329192 119.67505303 129.09664381 124.22498933 126.0234375 128.77734375 C124.7475131 130.66540806 123.47129966 132.55327645 122.19488525 134.44100952 C121.41208724 135.59919996 120.62980443 136.75773881 119.8480835 137.91665649 C115.65356686 144.13218416 111.39757742 150.26517618 106.81640625 156.203125 C107.27096191 156.72849854 107.72551758 157.25387207 108.19384766 157.79516602 C112.00769731 162.2798538 114.88354556 166.98196665 117.44140625 172.265625 C128.23482851 194.54459538 140.87796822 215.73973185 153.87890625 236.78515625 C154.52931885 237.84210693 155.17973145 238.89905762 155.84985352 239.98803711 C157.09396986 242.00711399 158.34420745 244.0224353 159.60131836 246.03344727 C160.1556958 246.93248779 160.71007324 247.83152832 161.28125 248.7578125 C161.77230225 249.54655762 162.26335449 250.33530273 162.76928711 251.14794922 C163.81640625 253.203125 163.81640625 253.203125 163.81640625 256.203125 C157.48506158 256.2542834 151.15377119 256.28904883 144.82226562 256.31298828 C142.67315682 256.32297964 140.52406138 256.33657731 138.375 256.35400391 C107.03517249 256.60157689 107.03517249 256.60157689 99.81640625 250.203125 C93.25112995 243.71343577 89.11879732 236.75723652 85.06640625 228.515625 C84.1616746 226.72284556 83.25691172 224.93007969 82.34910583 223.13885498 C81.73661611 221.92999716 81.12557994 220.72040178 80.51600647 219.5100708 C77.55001301 213.63220766 74.42400145 207.84779827 71.25390625 202.078125 C70.77791992 201.20969971 70.30193359 200.34127441 69.81152344 199.4465332 C68.91668642 197.81760549 68.01857404 196.19047141 67.11669922 194.56542969 C66.22116954 192.93847792 65.34081356 191.30311208 64.47314453 189.66113281 C64.04114746 188.85256836 63.60915039 188.04400391 63.1640625 187.2109375 C62.59377319 186.12643311 62.59377319 186.12643311 62.01196289 185.02001953 C60.78769626 182.9022065 60.78769626 182.9022065 57.81640625 181.203125 C55.0776767 180.74540437 55.0776767 180.74540437 52.12890625 180.578125 C51.13503906 180.50335938 50.14117188 180.42859375 49.1171875 180.3515625 C47.97830078 180.27808594 47.97830078 180.27808594 46.81640625 180.203125 C46.81862686 181.1405101 46.82084747 182.0778952 46.82313538 183.04368591 C46.84336768 191.85834285 46.85837881 200.6729951 46.86821842 209.48766994 C46.87344703 214.01986594 46.88054426 218.55204327 46.8918457 223.08422852 C46.90267539 227.4543533 46.90868326 231.82446008 46.91128349 236.19459724 C46.9131376 237.86563463 46.91675793 239.53667097 46.92213631 241.20770073 C46.92934784 243.54010051 46.93039715 245.87242493 46.92993164 248.20483398 C46.93352692 248.9025441 46.93712219 249.60025421 46.94082642 250.31910706 C46.93045841 255.08907284 46.93045841 255.08907284 45.81640625 256.203125 C44.15902182 256.29659415 42.49765981 256.32057477 40.83764648 256.31665039 C39.77662216 256.31657486 38.71559784 256.31649933 37.62242126 256.31642151 C35.89119774 256.30867958 35.89119774 256.30867958 34.125 256.30078125 C32.95002457 256.2993663 31.77504913 256.29795135 30.56446838 256.29649353 C26.79425561 256.29087492 23.02410121 256.27831926 19.25390625 256.265625 C16.70507898 256.2606124 14.15625078 256.25604908 11.60742188 256.25195312 C5.34372992 256.24089944 -0.91992774 256.22414321 -7.18359375 256.203125 C-8.33996322 253.89038606 -8.30889033 252.58211834 -8.30943489 250.00862789 C-8.31204264 249.12396341 -8.31465039 248.23929893 -8.31733716 247.32782644 C-8.31510643 246.34992432 -8.31287571 245.37202221 -8.31057739 244.36448669 C-8.31213738 243.33034466 -8.31369737 242.29620263 -8.31530464 241.23072296 C-8.31931402 237.74291242 -8.31612522 234.2551449 -8.31298828 230.76733398 C-8.31434234 228.2760821 -8.3161223 225.78483041 -8.31829834 223.2935791 C-8.32239627 217.21614924 -8.3217807 211.13873645 -8.3188857 205.06130724 C-8.31663091 200.1242909 -8.31631947 195.18727802 -8.31740952 190.25026131 C-8.31756275 189.54865462 -8.31771598 188.84704792 -8.31787386 188.12418042 C-8.31819357 186.69906822 -8.31851778 185.27395602 -8.31884645 183.84884382 C-8.32170047 170.47433773 -8.31841533 157.09983849 -8.31304608 143.72533352 C-8.30857714 132.23753988 -8.30935487 120.74975635 -8.31396484 109.26196289 C-8.31931031 95.93504373 -8.32142681 82.60813057 -8.31835258 69.28121048 C-8.31803402 67.8615313 -8.31771965 66.44185211 -8.31740952 65.02217293 C-8.31725524 64.32358372 -8.31710096 63.62499451 -8.31694201 62.90523593 C-8.31607685 57.97092016 -8.31753971 53.03660819 -8.31988907 48.10229301 C-8.32297832 41.4679267 -8.32079482 34.8335766 -8.31499481 28.19921112 C-8.31366647 25.75660547 -8.31406257 23.31399823 -8.31625748 20.8713932 C-8.31896606 17.55249983 -8.31559146 14.23366899 -8.31057739 10.91477966 C-8.31280811 9.93464683 -8.31503884 8.95451399 -8.31733716 7.94468015 C-8.31472941 7.06262342 -8.31212166 6.18056669 -8.30943489 5.27178097 C-8.30927254 4.50469088 -8.30911019 3.7376008 -8.30894291 2.94726557 C-8.00039239 -1.34598589 -3.31226446 0.01990552 0 0 Z " fill="#05307B" transform="translate(612.18359375,6.796875)"/>
<path d="M0 0 C13.59966644 12.40438326 18.93674116 31.70965638 19.9314003 49.50760841 C19.99315873 52.86647609 19.99788352 56.21997947 19.97705078 59.5793457 C19.97734283 60.83945465 19.97763489 62.0995636 19.97793579 63.39785767 C19.97850277 66.80819534 19.96685639 70.2183884 19.95278788 73.62869287 C19.94016958 77.20941931 19.93910137 80.79015014 19.93673706 84.37089539 C19.93055456 91.13140211 19.91418813 97.89184309 19.89403808 104.65232104 C19.8715777 112.3574243 19.86066032 120.06253092 19.85064721 127.76765883 C19.82981851 143.59905002 19.79470632 159.43037587 19.75 175.26171875 C15.66068318 175.31172921 11.57148859 175.34772232 7.48193359 175.37158203 C6.09518324 175.38154478 4.70845335 175.39511993 3.32177734 175.41259766 C-8.74422795 175.56070025 -19.83708397 175.69492311 -29.25 167.26171875 C-37.50338978 156.70558762 -35.39698076 140.43656813 -35.32516479 127.75123978 C-35.31210987 125.41857242 -35.3058131 123.0859636 -35.30102539 120.75326538 C-35.28783083 114.96359192 -35.26363042 109.17397527 -35.23962402 103.38433838 C-35.21967643 98.4708625 -35.20412999 93.55740817 -35.19406128 88.64390182 C-35.18771534 86.37768282 -35.17521412 84.11155727 -35.16235352 81.84536743 C-34.00272042 59.81106341 -34.00272042 59.81106341 -42.625 40.76171875 C-50.67573419 36.16129921 -59.01168655 36.26136017 -67.875 38.44921875 C-73.6238851 40.18706224 -79.60441316 42.56525524 -83.875 46.91796875 C-85.25 48.26171875 -85.25 48.26171875 -87.25 48.26171875 C-87.52070312 48.83019531 -87.79140625 49.39867187 -88.0703125 49.984375 C-89.28761757 52.33433809 -90.68164599 54.48183811 -92.125 56.69921875 C-98.81121722 67.76662475 -100.37482211 79.83312307 -100.43945312 92.50756836 C-100.44774643 93.3947052 -100.45603973 94.28184204 -100.46458435 95.19586182 C-100.48188042 97.10716483 -100.49707489 99.01848782 -100.51036072 100.92982292 C-100.53150881 103.9510367 -100.55851522 106.97214877 -100.58703613 109.99330139 C-100.65661436 117.48722209 -100.71644394 124.98121422 -100.77606201 132.47521973 C-100.82690396 138.82678893 -100.88165771 145.17829963 -100.94187927 151.52978706 C-100.96851655 154.51291821 -100.98928269 157.49605475 -101.0098877 160.47923279 C-101.0264791 162.2933682 -101.0433499 164.10750109 -101.06054688 165.92163086 C-101.06473129 166.75638443 -101.06891571 167.591138 -101.07322693 168.45118713 C-101.13614023 174.14785898 -101.13614023 174.14785898 -102.25 175.26171875 C-103.87127423 175.36033473 -105.49682368 175.38970642 -107.12109375 175.39111328 C-108.67775757 175.39584152 -108.67775757 175.39584152 -110.26586914 175.40066528 C-111.95957642 175.39762894 -111.95957642 175.39762894 -113.6875 175.39453125 C-115.41311157 175.39596634 -115.41311157 175.39596634 -117.17358398 175.39743042 C-119.61149144 175.39811244 -122.0494007 175.39625665 -124.48730469 175.39208984 C-128.23376518 175.38674192 -131.98010577 175.39203414 -135.7265625 175.3984375 C-138.08854193 175.39777672 -140.45052129 175.39649557 -142.8125 175.39453125 C-143.94163818 175.39655548 -145.07077637 175.39857971 -146.23413086 175.40066528 C-147.79079468 175.39593704 -147.79079468 175.39593704 -149.37890625 175.39111328 C-150.29744385 175.39031769 -151.21598145 175.38952209 -152.16235352 175.38870239 C-154.25 175.26171875 -154.25 175.26171875 -155.25 174.26171875 C-155.34986156 171.88594089 -155.38442524 169.53917867 -155.37698364 167.1628418 C-155.37854363 166.4113193 -155.38010362 165.65979681 -155.38171089 164.88550091 C-155.38572372 162.34812694 -155.38253016 159.810812 -155.37939453 157.2734375 C-155.38074845 155.46212733 -155.38252832 153.65081743 -155.38470459 151.83950806 C-155.38928008 146.90576635 -155.38748889 141.97204546 -155.3843255 137.03830338 C-155.3818025 131.88710726 -155.38413927 126.73591298 -155.38571167 121.5847168 C-155.38753354 112.93245116 -155.3851266 104.28019404 -155.38037109 95.62792969 C-155.37492844 85.60944912 -155.37669109 75.59098889 -155.3821975 65.57250881 C-155.38672813 56.98740432 -155.38737942 48.40230596 -155.38475883 39.81720066 C-155.38319578 34.6824415 -155.38300305 29.54769191 -155.38629532 24.41293335 C-155.38917331 19.58674538 -155.38719966 14.76058376 -155.38140106 9.93439865 C-155.38007308 8.15778014 -155.38046822 6.38115943 -155.38266373 4.60454178 C-155.38537374 2.18986262 -155.38199596 -0.22473069 -155.37698364 -2.6394043 C-155.37921436 -3.35174382 -155.38144509 -4.06408335 -155.38374341 -4.79800892 C-155.36414986 -9.62413139 -155.36414986 -9.62413139 -154.25 -10.73828125 C-150.31959312 -10.9956937 -146.37530591 -10.92353493 -142.4375 -10.92578125 C-141.35017578 -10.93802734 -140.26285156 -10.95027344 -139.14257812 -10.96289062 C-128.53212962 -10.98180408 -117.7125694 -10.85174538 -109.25 -3.73828125 C-105.36128171 0.45744111 -103.25 3.50049686 -103.25 9.26171875 C-102.80011719 8.84921875 -102.35023438 8.43671875 -101.88671875 8.01171875 C-89.64941875 -2.97487524 -76.80223735 -11.28727687 -60.25 -13.73828125 C-59.18265625 -13.90263672 -59.18265625 -13.90263672 -58.09375 -14.0703125 C-37.47569112 -16.79276746 -16.64791611 -12.8616713 0 0 Z " fill="#05307B" transform="translate(1027.25,87.73828125)"/>
<path d="M0 0 C20.1542778 16.92758016 31.84942615 39.10248935 34.93164062 65.21240234 C37.14073864 91.69089655 30.88389493 117.71244051 13.88476562 138.41943359 C11.71959774 140.87181762 9.48719407 143.23267403 7.21289062 145.58349609 C6.69855469 146.18291016 6.18421875 146.78232422 5.65429688 147.39990234 C-7.87827159 162.54934911 -31.50948678 170.77056821 -51.25195312 172.45458984 C-80.35028187 173.93416588 -107.54172681 167.28098118 -129.78710938 147.58349609 C-148.73486632 129.52139918 -158.38175681 104.65239595 -159.07275391 78.74536133 C-159.34966017 53.87666164 -152.46947613 29.10506567 -134.98876953 10.77880859 C-133.60145395 9.36723758 -132.19450063 7.97505173 -130.78710938 6.58349609 C-129.98402344 5.77009766 -129.1809375 4.95669922 -128.35351562 4.11865234 C-95.24664325 -27.6835157 -35.49148876 -28.13136855 0 0 Z M-94.12695312 40.43115234 C-103.49188631 52.57251278 -107.19909272 67.38506422 -105.78710938 82.58349609 C-104.14706845 94.59679587 -100.20717584 107.33840566 -90.78710938 115.58349609 C-79.4332765 124.17510107 -68.98343976 126.87539119 -54.78710938 125.58349609 C-42.08369149 123.12342502 -33.38958668 116.95347049 -25.78710938 106.58349609 C-17.95869749 92.84909245 -16.56449285 76.21318688 -19.50976562 60.80224609 C-20.42405993 57.92980732 -21.47270535 55.29391747 -22.78710938 52.58349609 C-23.1609375 51.78041016 -23.53476563 50.97732422 -23.91992188 50.14990234 C-29.14196497 39.89602301 -36.5120325 32.65583849 -47.41210938 28.83349609 C-64.28941472 23.74442787 -81.85980127 27.17798828 -94.12695312 40.43115234 Z " fill="#0093CE" transform="translate(1671.787109375,93.41650390625)"/>
<path d="M0 0 C1.05960938 0.52335937 2.11921875 1.04671875 3.2109375 1.5859375 C23.95654122 12.74827021 38.09779614 32.79305105 44.96875 54.984375 C52.66628632 83.46525938 49.27649784 111.423436 34.83984375 137.04296875 C31.93036896 141.719131 28.66787485 145.89785946 25 150 C24.26136719 150.83273438 23.52273438 151.66546875 22.76171875 152.5234375 C5.35731288 171.03876289 -19.48526367 179.95659765 -44.47412109 180.97875977 C-72.35344194 181.60027329 -98.17277227 172.6239318 -118.6640625 153.42578125 C-131.37778139 140.22307317 -138.77388388 124.61409041 -143 107 C-143.36931641 105.51306641 -143.36931641 105.51306641 -143.74609375 103.99609375 C-148.82157902 79.38874105 -143.63200446 52.55814415 -130.6875 31.1875 C-114.92012053 8.0291614 -93.55129688 -4.73309331 -66.28125 -10.21484375 C-43.12408554 -14.58976339 -20.88348034 -10.4135345 0 0 Z M-76 45 C-76.67675781 45.63679688 -77.35351562 46.27359375 -78.05078125 46.9296875 C-87.97215247 57.13132344 -91.92504182 69.81700376 -92.3125 83.75 C-92.05698425 97.60797185 -88.5462484 112.01980262 -78.81640625 122.41015625 C-68.40538336 131.52259994 -57.60983441 134.83910501 -43.9765625 134.34765625 C-31.00435069 133.21354343 -22.11476101 127.16720145 -13.82421875 117.4921875 C-4.23250999 104.3883113 -3.67001909 88.60002202 -5 73 C-6.98796097 60.84130943 -13.40414504 50.24275213 -22.90234375 42.46484375 C-38.52027921 31.55846424 -61.92667895 31.61684182 -76 45 Z " fill="#05307B" transform="translate(539,85)"/>
<path d="M0 0 C19.49951833 16.78941578 28.939073 40.4836187 31.14355469 65.75854492 C32.93888386 90.55856922 25.7967082 116.69610444 9.37890625 135.7265625 C8.69441406 136.47164062 8.00992188 137.21671875 7.3046875 137.984375 C6.56863281 138.81195313 5.83257812 139.63953125 5.07421875 140.4921875 C-10.69776141 157.31906356 -34.55874393 167.59585359 -57.53125 168.94921875 C-84.54801646 169.24940504 -108.32410518 164.22824604 -129.6953125 146.984375 C-130.76845703 146.13939453 -130.76845703 146.13939453 -131.86328125 145.27734375 C-149.79916011 130.46376488 -159.96102385 107.1284528 -162.484375 84.36572266 C-165.00354265 55.92595263 -157.85264919 30.65991182 -140.3203125 8.109375 C-105.37276021 -32.63259011 -39.91808706 -33.07853943 0 0 Z M-100.1328125 39.84375 C-109.04128443 52.04835655 -111.23812044 67.68330685 -109.2265625 82.41796875 C-106.99132129 94.56544031 -102.28531295 106.24091494 -92.22265625 113.85546875 C-80.46119454 121.8122382 -68.33441629 123.98156213 -54.38671875 121.36328125 C-43.28082838 118.11383348 -34.89554117 111.79595638 -29.125 101.7734375 C-20.45892981 84.86749729 -20.23734879 69.15383484 -25.5390625 51.11328125 C-29.32945104 40.64069912 -36.9496819 31.53113221 -47.0703125 26.734375 C-66.93343306 18.69533801 -86.4600049 23.25914078 -100.1328125 39.84375 Z " fill="#05307B" transform="translate(351.6953125,97.015625)"/>
<path d="M0 0 C7.85301302 7.3088904 12.5752831 16.35153175 13.17456055 27.14355469 C13.23216936 30.72284788 13.22367623 34.29545745 13.1875 37.875 C13.1865332 39.72738281 13.1865332 39.72738281 13.18554688 41.6171875 C13.14063798 50.71872404 13.14063798 50.71872404 12 53 C7.73164297 53.07474224 3.46364326 53.12887823 -0.80517578 53.16479492 C-2.25413661 53.17978417 -3.70305283 53.20018271 -5.15185547 53.22631836 C-22.52947574 53.53171417 -22.52947574 53.53171417 -28.953125 48.45703125 C-29.38109375 47.91433594 -29.8090625 47.37164062 -30.25 46.8125 C-30.97509766 45.89984375 -30.97509766 45.89984375 -31.71484375 44.96875 C-33.01917087 42.97063186 -33.89752399 41.01172485 -34.8125 38.8125 C-36.76914388 34.72493627 -39.04004754 33.24267183 -43.24609375 31.68359375 C-55.99454161 28.51908541 -68.3613086 30.0414355 -80 36 C-88.89824158 41.64944902 -95.02238764 49.27694756 -99 59 C-99.30035156 59.72960937 -99.60070313 60.45921875 -99.91015625 61.2109375 C-104.25835807 74.03307681 -103.94970829 90.82255967 -98 103 C-97.57589844 103.87785156 -97.15179687 104.75570312 -96.71484375 105.66015625 C-90.46391193 117.20435624 -80.49494663 123.72243666 -68.1003418 127.59326172 C-52.88422266 131.76017745 -37.03289745 128.82653648 -23.1875 121.75 C-16.13961314 117.71025181 -9.67513029 112.95377613 -4.125 107 C-2 105 -2 105 2 105 C3.56064106 107.04915251 4.76844182 108.93177795 6.00390625 111.16796875 C6.55074318 112.11570915 6.55074318 112.11570915 7.10862732 113.08259583 C8.2741247 115.10981177 9.41845476 117.148115 10.5625 119.1875 C11.33650876 120.54310764 12.11188414 121.89793597 12.88867188 123.25195312 C14.32184351 125.75329453 15.7462588 128.25921959 17.16235352 130.77026367 C18.31446207 132.79513999 19.50389402 134.7997054 20.74584961 136.77075195 C22 139 22 139 21.9375 141.5 C17.20430623 154.12185006 -0.22182212 162.39300298 -11.75317383 167.84692383 C-23.03202057 172.94784743 -35.57670425 176.52673159 -48 177 C-49.20398437 177.0515625 -50.40796875 177.103125 -51.6484375 177.15625 C-79.83434348 177.96375435 -105.84031168 169.94328889 -127 151 C-127.63292969 150.44957031 -128.26585937 149.89914063 -128.91796875 149.33203125 C-146.09990475 133.40826905 -155.24120443 108.5631657 -156.21875 85.56640625 C-156.93975763 58.84800181 -149.07539618 33.98226464 -131 14 C-124.38228749 7.1673053 -117.26268061 1.69181584 -109 -3 C-108.08863281 -3.52335937 -107.17726563 -4.04671875 -106.23828125 -4.5859375 C-75.29090807 -21.22067834 -28.54562555 -22.57873057 0 0 Z " fill="#0093CE" transform="translate(1488,90)"/>
<path d="M0 0 C6.31639302 6.68553288 7.92884882 14.75626202 7.93167114 23.65484619 C7.93323113 24.31994823 7.93479112 24.98505027 7.93639839 25.67030692 C7.94037609 27.89122999 7.93723134 30.11208428 7.93408203 32.33300781 C7.93543745 33.92816203 7.93721818 35.52331593 7.93939209 37.11846924 C7.94394818 41.44455642 7.94218474 45.77061974 7.939013 50.09670734 C7.93648176 54.62060422 7.93882892 59.14449904 7.94039917 63.668396 C7.94221788 71.26103075 7.93982159 78.85365578 7.93505859 86.44628906 C7.92960871 95.23562149 7.93138509 104.02493075 7.936885 112.81426263 C7.94141529 120.35487067 7.94206733 127.89547173 7.93944633 135.43608069 C7.9378841 139.942562 7.93768849 144.44903239 7.94098282 148.955513 C7.94386057 153.18751365 7.94188763 157.41948424 7.93608856 161.65148163 C7.93476078 163.20879567 7.93515538 164.76611223 7.93735123 166.32342529 C7.94006185 168.44011856 7.93668283 170.55671394 7.93167114 172.67340088 C7.93129412 173.8606287 7.93091709 175.04785652 7.93052864 176.27106094 C7.8046875 178.91015625 7.8046875 178.91015625 6.8046875 179.91015625 C5.18341327 180.00877223 3.55786382 180.03814392 1.93359375 180.03955078 C0.37692993 180.04427902 0.37692993 180.04427902 -1.21118164 180.04910278 C-2.90488892 180.04606644 -2.90488892 180.04606644 -4.6328125 180.04296875 C-6.35842407 180.04440384 -6.35842407 180.04440384 -8.11889648 180.04586792 C-10.55680394 180.04654994 -12.9947132 180.04469415 -15.43261719 180.04052734 C-19.17907768 180.03517942 -22.92541827 180.04047164 -26.671875 180.046875 C-29.03385443 180.04621422 -31.39583379 180.04493307 -33.7578125 180.04296875 C-34.88695068 180.04499298 -36.01608887 180.04701721 -37.17944336 180.04910278 C-38.73610718 180.04437454 -38.73610718 180.04437454 -40.32421875 180.03955078 C-41.24275635 180.03875519 -42.16129395 180.03795959 -43.10766602 180.03713989 C-45.1953125 179.91015625 -45.1953125 179.91015625 -46.1953125 178.91015625 C-46.29296085 176.53207825 -46.32528383 174.18308497 -46.31556702 171.80455017 C-46.31642144 171.05232211 -46.31727587 170.30009405 -46.31815618 169.5250712 C-46.31981324 166.9853591 -46.31428595 164.44571195 -46.30883789 161.90600586 C-46.30855604 160.09307354 -46.30871371 158.28014111 -46.3092804 156.46720886 C-46.30956846 151.52939912 -46.30367031 146.59161344 -46.29670644 141.65380931 C-46.29047436 136.49947782 -46.28986922 131.34514583 -46.28868103 126.19081116 C-46.28556728 116.42311533 -46.27735331 106.65543063 -46.26733154 96.88773972 C-46.25617175 85.77063813 -46.25066029 74.65353603 -46.24563611 63.53643024 C-46.23517073 40.66099939 -46.21757045 17.78557844 -46.1953125 -5.08984375 C-43.96491964 -5.25364088 -41.73443234 -5.41615229 -39.50390625 -5.578125 C-38.26181396 -5.66876221 -37.01972168 -5.75939941 -35.73999023 -5.8527832 C-24.00594709 -6.63753118 -9.75366198 -7.49007627 0 0 Z " fill="#05307B" transform="translate(836.1953125,83.08984375)"/>
<path d="M0 0 C8.44528651 4.77472029 13.17370753 11.87912099 16.5859375 20.875 C18.34689153 30.38415175 16.62618446 38.64595549 11.6484375 46.9375 C7.04058991 53.38619986 0.18426771 58.62211646 -7.73828125 60.03515625 C-8.75341797 60.14150391 -8.75341797 60.14150391 -9.7890625 60.25 C-10.55863281 60.33121094 -11.32820313 60.41242188 -12.12109375 60.49609375 C-20.72204837 60.94307249 -28.49035197 58.4819765 -35.1640625 53 C-41.13691387 47.28417707 -45.21669729 40.49446263 -46.125 32.171875 C-46.25585354 21.54656762 -44.09378124 13.82526398 -36.71484375 6.00390625 C-26.48211211 -3.31555928 -12.72948038 -5.93218503 0 0 Z " fill="#0093CE" transform="translate(1308.7890625,204.75)"/>
<path d="M0 0 C7.32172923 4.54892776 12.85279752 11.17835536 15.6875 19.328125 C17.74841438 28.34462541 16.97544942 37.02957239 12.3125 45.0625 C7.24247421 52.35306872 0.1414191 58.19484404 -8.6875 60.0625 C-18.82881661 61.03331823 -27.82603675 59.40623998 -36 53.0625 C-42.73335442 46.57852908 -46.45221525 37.94415024 -46.78515625 28.6484375 C-46.43781526 19.45084812 -43.22063471 11.38813206 -36.46875 4.9453125 C-26.55318567 -3.02019084 -11.96739413 -5.42272547 0 0 Z " fill="#05307B" transform="translate(829.6875,1.9375)"/>
<path d="M0 0 C0.66 0.33 1.32 0.66 2 1 C2 60.73 2 120.46 2 182 C1.34 182 0.68 182 0 182 C-0.2176761 172.29219588 -0.40025729 162.58386899 -0.5625 152.875 C-0.57523327 152.11399994 -0.58796654 151.35299988 -0.60108566 150.56893921 C-1.14751633 117.20910876 -0.90373804 83.86103658 -0.5625 50.5 C-0.54968616 49.24627342 -0.53687233 47.99254684 -0.5236702 46.70082855 C-0.36326228 31.13371806 -0.18846576 15.56679521 0 0 Z " fill="#0089B4" transform="translate(1723,79)"/>
</svg>
