<svg xmlns="http://www.w3.org/2000/svg" width="135.915" height="183.164" viewBox="0 0 135.915 183.164"><g transform="translate(49.93 46.921)"><g transform="translate(-49.93 -46.921)"><path d="M52.6,125.2c-4.286-7.35-2.059-16.577,5.5-20.6-.248.842-.643,1.651-.858,2.5-2.248,8.9,3.627,18.022,12.979,18.624a15.636,15.636,0,0,0,7.593-1.257,14.121,14.121,0,0,1-10.875,7.662c-.5.041-1,.062-1.5.062A14.409,14.409,0,0,1,52.6,125.2Zm28.347,3.492a20.179,20.179,0,0,0-19.588-32.8C48.563,98.54,41.548,113.516,47.9,125.045l2.059,3.18A31.69,31.69,0,0,1,37.888,85.254,32.442,32.442,0,0,1,76.8,70.65c23.447,8.142,28.26,39.15,9.224,54.754-.466.382-4.509,3.3-5.037,3.3A.065.065,0,0,1,80.943,128.693Zm10.014-2.972a38.448,38.448,0,0,0,11.06-20.621C106.83,76.959,79.289,53.48,52.23,63.3,29.4,71.579,20.693,99.523,34.161,119.62c-.293.069-.372-.163-.548-.311-8.742-7.329-15.139-20.7-16.193-31.994-3.467-37.179,33.254-64.728,67.9-50.057,35.318,14.956,40.9,64.2,9.286,86.249a26.073,26.073,0,0,1-3.649,2.216Zm-13.143-1.249h0ZM3.844,86.961A67.031,67.031,0,0,1,40.737,2.993c6.118-2.624,11.89-4.913,17.883-.526,6.044,4.423,5.277,10.3,5.419,16.954a43.216,43.216,0,0,1,.167,5.943,2.1,2.1,0,0,1-.92,1.427c-.846.55-3.718.53-4.931.7-36.927,5.27-58.528,43.629-42.838,77.84L18.2,110.39h0A64.3,64.3,0,0,1,3.844,86.961Z" transform="translate(12.609 10.075)" fill="#00423c"/><path d="M39.511,30.791l.027-.219,2.688-6.88L35.215,6.778c-.023-.044.057-.125.073-.125h4.768l4.3,11.028.193.035L48.094,6.653H52.78c.028,0,.089.091.084.136l-8.5,24Zm78.851-2.016h-.981l.052-.3,1.846-4.615-5.962-13.224c-.055-.226.914-.273.969.014l5.466,11.97,4.827-12.064c.1-.141.878-.13.918,0l-7.135,18.22ZM56.4,22.482c-5.53-4.763-3.41-15.4,4.34-16.258A7,7,0,0,1,67.33,8.886l.135-.081V6.735l.082-.082h4.2l.082.082v12.75a.91.91,0,0,0,.136.136h1.391l-1.172,4.3H67.547l-.082-.082V18.7l-.212.006L66.022,22.89c-.11.247-.618.529-.863.663a7.215,7.215,0,0,1-3.468.853A8.209,8.209,0,0,1,56.4,22.482Zm5.44-12.162c-3.315.337-4.95,4.087-3.775,7.012,1.868,4.65,9.012,3.63,9.4-1.553a4.864,4.864,0,0,0-4.984-5.492A6.294,6.294,0,0,0,61.842,10.32ZM21.656,22.791c-.126-.073-.443-.223-.45-.36l1.005-3.573C24.065,19.935,26.7,21.269,28.9,20.7c1.024-.268,1.738-1.226,1.048-2.215-.678-.971-3.659-1.639-4.838-2.191C18.858,13.366,21.768,6.245,27.84,6.178h0l.638-.015a10.7,10.7,0,0,1,5.4,1.691L32.89,11.5a7.893,7.893,0,0,0-5.069-1.691c-1.125.089-2.11.848-1.686,2.072.408,1.179,2.751,1.622,3.814,2.016a9.027,9.027,0,0,1,3.941,2.489,4.87,4.87,0,0,1-.753,6.312,8.021,8.021,0,0,1-5.28,1.7A12.89,12.89,0,0,1,21.656,22.791ZM14.2,23.926l-.082-.082v-12.8l-.082-.082H12.592l1.172-4.3H18.4l.082.082v12.8l.082.082h1.39l-1.037,4.112-.134.193Zm-10.9,0-.082-.082v-13H.086c-.072,0-.109-.212-.07-.286.42-1.169.568-2.551.983-3.7a.4.4,0,0,1,.122-.2h2.1V1.831L7.579.551h0v6.1H11.72c-.2,1.355-.692,2.661-.982,4l-.135.192H7.579v13l-.082.082ZM97.054,16.92c.08-6.292,8.11-9.187,11.959-4.269.107.137.447.741.521.786s.273.021.273-.055V10.467h.925V22.672h1.336c.052.042.064.045.061.112-.008.213-.2.528-.2.759H109.89l-.082-.082V20.683a.558.558,0,0,0-.144-.132c-.123-.023-.671.869-.809,1.031a6.331,6.331,0,0,1-4.892,2.29A6.879,6.879,0,0,1,97.054,16.92Zm1.426,2.557a5.948,5.948,0,1,0,5.049-8.394h0A5.957,5.957,0,0,0,98.48,19.477Zm29.764,3.75a6.864,6.864,0,0,1-1.627-.989c-.162-.179.082-.958.217-.926.065.015.869.65,1.082.771a7.051,7.051,0,0,0,4.041.862c1.288-.095,2.9-.732,3.024-2.206.375-4.347-7.949-2.5-8.066-7.026-.056-2.17,1.911-3.356,3.86-3.5h0a7.142,7.142,0,0,1,3.263.574c.207.089,1.083.512,1.111.692.018.116-.163.792-.3.791-.058,0-.816-.51-.99-.594a5.59,5.59,0,0,0-4.307-.29c-2.1.851-2.36,3.252-.273,4.324,2.246,1.153,6.919,1.386,6.623,4.914-.2,2.346-2.369,3.2-4.548,3.2A8.134,8.134,0,0,1,128.243,23.227Zm-49.317-.272c-.187-.1-1.155-.7-1.16-.85.076-.139.119-.816.292-.79.073.012,1,.717,1.23.841,1.646.895,4.572,1.241,6.13.025a2.345,2.345,0,0,0-.3-3.781c-1.922-1.324-6.645-1.378-6.915-4.31-.4-4.348,5.663-4.771,8.207-2.617l-.2.791h0c-.1.085-.654-.346-.8-.424a5.4,5.4,0,0,0-5.066-.238,2.224,2.224,0,0,0-.143,3.922c2.282,1.386,7.271,1.4,6.936,5.159-.2,2.286-2.309,3.135-4.482,3.135A8.168,8.168,0,0,1,78.927,22.955Zm12.57.59V7.525H78.609c-.17-.2-.046-.559-.082-.817H91.415l.082-.082V4.119l.137-.084.79.792v1.8l.082.082h42.15c-.036.259.089.613-.082.817H92.505l-.082.082V23.544Zm18.31-13.077h0ZM40.056,6.653h0ZM15.958.021c3.336-.377,3.718,4.506.632,4.828a3.227,3.227,0,0,1-.333.018C13.248,4.867,13.036.35,15.958.021Z" transform="translate(0 152.372)" fill="#00423c"/><path d="M21.287,11.42v.155c-.2-.06-.453.158-.548.158H17.3c-3.787,0-7.122,4.915-6.338,8.525l-.311,2.9V18.54c0-2.944-3.338-6.805-6.336-6.805H.556c-.095,0-.352-.218-.546-.158v-.155H4.155c3.109,0,6.493-3.757,6.493-6.805V0l.311,2.9c-.735,3.757,2.564,8.525,6.494,8.525h3.834Z" transform="translate(10.931)" fill="#e56d00"/><path d="M2715.021,504.229l-.557.123a1.23,1.23,0,0,0-.668,1.185,1.165,1.165,0,0,0-1.227-1.281,1.2,1.2,0,0,0,1.227-1.335A1.156,1.156,0,0,0,2715.021,504.229Z" transform="translate(-2609.902 -334.85)" fill="#e56d00"/></g></g></svg>