<svg xmlns="http://www.w3.org/2000/svg" width="297.782" height="77.131" viewBox="0 0 297.782 77.131">
  <g id="Layer_1" data-name="Layer 1" transform="translate(-0.01)">
    <g id="Group_1" data-name="Group 1" transform="translate(0.01)">
      <path id="Union_1" data-name="Union 1" d="M28.514,67.876A7.927,7.927,0,0,1,31.5,56.708c-.134.456-.349.9-.465,1.358a7.98,7.98,0,0,0,7.036,10.1,8.477,8.477,0,0,0,4.116-.682,7.656,7.656,0,0,1-5.9,4.154c-.272.022-.544.034-.813.034A7.811,7.811,0,0,1,28.514,67.876Zm15.368,1.893a10.919,10.919,0,1,0-17.913-1.977l1.116,1.724a17.18,17.18,0,0,1-6.545-23.3,17.588,17.588,0,0,1,21.1-7.917c12.712,4.414,15.321,21.224,5,29.684a18.562,18.562,0,0,1-2.731,1.789A.035.035,0,0,1,43.882,69.769Zm5.429-1.611a20.844,20.844,0,0,0,6-11.179c2.609-15.256-12.322-27.985-26.992-22.663-12.376,4.49-17.1,19.64-9.8,30.535-.159.037-.2-.088-.3-.169-4.74-3.973-8.207-11.221-8.779-17.345A26.525,26.525,0,0,1,46.255,20.2C65.4,28.306,68.431,55,51.29,66.957a14.135,14.135,0,0,1-1.978,1.2Zm-7.125-.677h0ZM2.084,47.145a36.34,36.34,0,0,1,20-45.523C25.4.2,28.531-1.041,31.78,1.337c3.277,2.4,2.861,5.583,2.938,9.192a23.428,23.428,0,0,1,.09,3.222,1.136,1.136,0,0,1-.5.774,10.557,10.557,0,0,1-2.673.381A29.86,29.86,0,0,0,8.411,57.1l1.456,2.741h0A34.857,34.857,0,0,1,2.084,47.145Z" transform="translate(0.904 5.462)" fill="#fff"/>
      <path id="Union_2" data-name="Union 2" d="M61.5,47.93l.042-.341L65.73,36.88,54.816,10.551c-.035-.069.088-.194.114-.194h7.422l6.692,17.167.3.055,5.519-17.222h7.295c.043,0,.139.141.131.212L69.054,47.93Zm122.741-3.138h-1.527l.081-.47,2.873-7.184-9.281-20.585c-.085-.352,1.423-.425,1.508.022l8.509,18.633,7.514-18.78c.155-.219,1.367-.2,1.429,0L184.245,44.793ZM87.8,35c-8.608-7.414-5.308-23.971,6.756-25.308a10.9,10.9,0,0,1,10.254,4.144l.211-.126V10.484l.128-.127h6.531l.128.127V30.331a1.418,1.418,0,0,0,.211.212h2.165l-1.824,6.7h-7.21l-.127-.128V29.1l-.329.01-1.918,6.52c-.171.384-.962.824-1.343,1.032a11.231,11.231,0,0,1-5.4,1.328A12.778,12.778,0,0,1,87.8,35Zm8.467-18.931c-5.16.524-7.7,6.361-5.877,10.914,2.907,7.239,14.028,5.65,14.63-2.417.369-4.951-3-8.548-7.757-8.548A9.8,9.8,0,0,0,96.264,16.065ZM33.711,35.477c-.2-.114-.689-.346-.7-.56l1.565-5.562c2.885,1.676,6.983,3.753,10.407,2.859,1.594-.417,2.705-1.909,1.631-3.448-1.056-1.511-5.7-2.551-7.532-3.41-9.727-4.55-5.2-15.634,4.254-15.739h0l.992-.024a16.658,16.658,0,0,1,8.4,2.631l-1.53,5.68a12.287,12.287,0,0,0-7.891-2.632c-1.752.139-3.284,1.32-2.625,3.225.635,1.835,4.282,2.525,5.937,3.138,2.018.747,4.863,2.1,6.134,3.875a7.581,7.581,0,0,1-1.172,9.826,12.486,12.486,0,0,1-8.219,2.65A20.065,20.065,0,0,1,33.711,35.477ZM22.1,37.244l-.128-.128V17.184l-.127-.128H19.6l1.824-6.7h7.21l.128.127V30.415l.127.128h2.163l-1.614,6.4-.209.3Zm-16.965,0-.127-.128V16.887H.134c-.113,0-.17-.33-.109-.445.653-1.82.885-3.971,1.531-5.766a.624.624,0,0,1,.19-.319H5.011V2.85L11.8.857h0v9.5h6.447c-.317,2.109-1.078,4.141-1.529,6.232l-.21.3H11.8V37.116l-.127.128ZM151.077,26.338c.125-9.794,12.624-14.3,18.615-6.646.167.213.7,1.153.812,1.224.137.084.426.033.426-.086V16.293h1.44v19h2.079c.081.065.1.07.095.175-.013.331-.3.822-.307,1.181h-3.18l-.127-.127V32.2a.869.869,0,0,0-.225-.205c-.192-.035-1.044,1.352-1.26,1.6a9.855,9.855,0,0,1-7.615,3.564A10.708,10.708,0,0,1,151.077,26.338Zm2.219,3.98a9.259,9.259,0,1,0,7.859-13.066h0A9.273,9.273,0,0,0,153.3,30.318Zm46.331,5.837a10.685,10.685,0,0,1-2.532-1.54c-.252-.279.128-1.49.338-1.442.1.023,1.352,1.013,1.685,1.2a10.976,10.976,0,0,0,6.29,1.341c2-.148,4.51-1.14,4.707-3.434.584-6.767-12.374-3.894-12.556-10.937-.087-3.378,2.975-5.223,6.008-5.448h0a11.117,11.117,0,0,1,5.079.894c.322.139,1.685.8,1.729,1.077.028.181-.253,1.234-.468,1.231-.09,0-1.271-.795-1.541-.924a8.7,8.7,0,0,0-6.7-.452c-3.266,1.324-3.673,5.063-.424,6.731,3.5,1.8,10.771,2.157,10.31,7.65-.306,3.652-3.688,4.986-7.08,4.987A12.661,12.661,0,0,1,199.626,36.156Zm-76.767-.424c-.29-.159-1.8-1.095-1.806-1.322.118-.217.186-1.269.455-1.23.114.018,1.56,1.116,1.915,1.31,2.563,1.393,7.116,1.932,9.543.039a3.65,3.65,0,0,0-.472-5.886c-2.991-2.06-10.344-2.145-10.764-6.709-.623-6.768,8.814-7.426,12.775-4.073l-.311,1.231h0c-.16.132-1.018-.538-1.245-.659-2.326-1.242-5.508-1.756-7.886-.37a3.461,3.461,0,0,0-.223,6.1c3.551,2.157,11.318,2.177,10.8,8.03-.317,3.558-3.594,4.88-6.977,4.88A12.715,12.715,0,0,1,122.859,35.731Zm19.567.918V11.713H122.365c-.264-.319-.071-.87-.128-1.272H142.3l.128-.127v-3.9l.213-.131,1.229,1.234v2.8l.128.127h65.611c-.056.4.138.954-.127,1.272H144l-.128.128V36.649Zm28.5-20.356h0ZM62.352,10.357h0ZM24.841.032c5.194-.586,5.787,7.015.983,7.515a5.024,5.024,0,0,1-.518.027C20.621,7.575,20.293.545,24.841.032Z" transform="translate(79.898 20.008)" fill="#fff"/>
      <path id="Path_16" data-name="Path 16" d="M11.545,6.191v.084c-.106-.033-.246.086-.3.086H9.382c-2.053,0-3.861,2.664-3.436,4.622l-.169,1.57v-2.5c0-1.6-1.81-3.689-3.435-3.689H.306c-.051,0-.191-.118-.3-.086V6.192H2.257A4.115,4.115,0,0,0,5.777,2.5V0l.169,1.57c-.4,2.037,1.39,4.622,3.521,4.622h2.078Z" transform="translate(-0.01)" fill="#e56d00"/>
      <path id="Path_17" data-name="Path 17" d="M3316.609,322.6c3.317-.3,3.686,4.714.484,4.98S3313.372,322.9,3316.609,322.6Zm.087.166c-2.985.211-2.724,4.759.229,4.651C3320.024,327.308,3319.728,322.555,3316.7,322.77Z" transform="translate(-3021.523 -294.083)" fill="#003a4c"/>
      <path id="Path_18" data-name="Path 18" d="M2716.387,504.957l-.868.191a1.914,1.914,0,0,0-1.04,1.844,1.814,1.814,0,0,0-1.91-1.994,1.861,1.861,0,0,0,1.91-2.078A1.8,1.8,0,0,0,2716.387,504.957Z" transform="translate(-2472.857 -458.476)" fill="#e56d00"/>
      <path id="Path_19" data-name="Path 19" d="M3332.181,336.637a1.222,1.222,0,0,1,.456.392c.479.917-.58,1.182-.581,1.262l.761.89c-.657.146-.875-.556-1.356-.847l-.038.769-.387.079V337.1c0-.07-.42-.081-.169-.467.385.055.96-.076,1.314,0Zm-.721,1.188c1.214.2,1.1-.973,0-.849Z" transform="translate(-3036.442 -306.867)" fill="#003a4c"/>
      <path id="Path_20" data-name="Path 20" d="M627.52,819.5a1.212,1.212,0,0,1,.234,2.412A1.212,1.212,0,0,1,627.52,819.5Zm.042.08a1.129,1.129,0,0,0,.11,2.254A1.129,1.129,0,0,0,627.562,819.585Z" transform="translate(-571.08 -747.078)" fill="#003a4c"/>
      <path id="Path_21" data-name="Path 21" d="M635.286,826.306a.6.6,0,0,1,.221.19c.233.445-.281.573-.282.611l.369.431c-.318.071-.424-.269-.658-.41l-.018.372-.187.039v-1.007c0-.034-.2-.04-.082-.226.186.027.466-.037.637,0Zm-.35.575c.589.1.532-.471,0-.411Z" transform="translate(-578.53 -753.274)" fill="#003a4c"/>
    </g>
  </g>
</svg>
