<svg xmlns="http://www.w3.org/2000/svg" width="50" height="57" viewBox="0 0 50 57">
  <g id="Group_125" data-name="Group 125" transform="translate(-855 -2228)">
    <circle id="Ellipse_10" data-name="Ellipse 10" cx="25" cy="25" r="25" transform="translate(855 2228)" fill="#003a4c"/>
    <path id="Union_4" data-name="Union 4" d="M13.577,33.148A3.924,3.924,0,0,1,15,27.694c-.064.223-.166.437-.222.663a3.887,3.887,0,0,0,3.35,4.931,3.946,3.946,0,0,0,1.96-.333,3.65,3.65,0,0,1-2.807,2.029c-.13.011-.259.016-.387.016A3.7,3.7,0,0,1,13.577,33.148Zm7.317.924a5.371,5.371,0,0,0,1.118-2.311,5.278,5.278,0,0,0-6.175-6.373,5.39,5.39,0,0,0-3.473,7.719l.532.842A8.506,8.506,0,0,1,9.78,22.571a8.281,8.281,0,0,1,10.045-3.866c6.053,2.156,7.3,10.365,2.381,14.5a8.82,8.82,0,0,1-1.3.874A.016.016,0,0,1,20.894,34.072Zm2.585-.787a10.261,10.261,0,0,0,2.855-5.46c1.242-7.45-5.867-13.667-12.852-11.068A10.091,10.091,0,0,0,8.818,31.67c-.076.018-.1-.043-.142-.082A13.671,13.671,0,0,1,4.5,23.117C3.6,13.274,13.081,5.98,22.024,9.864c9.117,3.96,10.559,17,2.4,22.835a6.7,6.7,0,0,1-.942.587Zm-3.393-.331h0ZM.992,23.024A17.9,17.9,0,0,1,10.516.792C12.1.1,13.585-.509,15.132.653s1.362,2.726,1.4,4.489a11.734,11.734,0,0,1,.043,1.574.556.556,0,0,1-.238.378,4.91,4.91,0,0,1-1.273.186A14.617,14.617,0,0,0,4.005,27.888L4.7,29.226h0A17.1,17.1,0,0,1,.992,23.024Z" transform="translate(865 2236)" fill="#fff"/>
    <path id="Polygon_1" data-name="Polygon 1" d="M6,0l6,9H0Z" transform="translate(887 2285) rotate(180)" fill="#003a4c"/>
  </g>
</svg>
