<svg width="28" height="29" viewBox="0 0 28 29" fill="none" xmlns="http://www.w3.org/2000/svg">
<g clip-path="url(#clip0_1986_320398)">
<g clip-path="url(#clip1_1986_320398)">
<path d="M21.013 12.241C21.013 8.00598 17.9214 5.00765 14.013 5.00765C10.1047 5.00765 7.01302 8.00598 7.01302 12.241C7.01302 14.971 9.28802 18.5877 14.013 22.9043C18.738 18.5877 21.013 14.971 21.013 12.241ZM14.013 2.67432C18.913 2.67432 23.3464 6.43098 23.3464 12.241C23.3464 16.1143 20.2314 20.6993 14.013 26.0077C7.79469 20.6993 4.67969 16.1143 4.67969 12.241C4.67969 6.43098 9.11302 2.67432 14.013 2.67432Z" fill="#F8F0E0"/>
<path d="M10.9922 16.855L12.1224 13.1606L9.13281 11.0217H12.8273L13.9939 7.13281L15.1606 11.0217H18.855L15.8655 13.1606L16.9957 16.855L13.9939 14.5703L10.9922 16.855Z" fill="#F8F0E0"/>
</g>
</g>
<defs>
<clipPath id="clip0_1986_320398">
<rect width="28" height="28" fill="white" transform="translate(0 0.335938)"/>
</clipPath>
<clipPath id="clip1_1986_320398">
<rect width="28" height="28" fill="white" transform="translate(0 0.333252)"/>
</clipPath>
</defs>
</svg>


