<!-- Generated by IcoMoon.io -->
<svg version="1.1" xmlns="http://www.w3.org/2000/svg" width="1024" height="1024" viewBox="0 0 1024 1024">
<g id="icomoon-ignore">
</g>
<path fill="#000" d="M56.889 1024v-682.667l455.111-341.333 455.111 341.333v682.667h-910.222zM170.667 910.222h682.667v-512l-341.333-256-341.333 256v512zM398.222 853.333h56.889v-227.556c23.704 0 43.843-8.306 60.416-24.917 16.612-16.572 24.917-36.712 24.917-60.416v-170.667h-56.889v170.667h-28.444v-170.667h-56.889v170.667h-28.444v-170.667h-56.889v170.667c0 23.704 8.306 43.844 24.917 60.416 16.573 16.612 36.712 24.917 60.416 24.917v227.556zM625.778 853.333h56.889v-483.556c-31.289 0-58.065 11.131-80.327 33.394-22.3 22.3-33.451 49.095-33.451 80.384v170.667h56.889v199.111z"></path>
</svg>
