<!-- Generated by IcoMoon.io -->
<svg version="1.1" xmlns="http://www.w3.org/2000/svg" width="1024" height="1024" viewBox="0 0 1024 1024">
<g id="icomoon-ignore">
</g>
<path fill="#000" d="M824.889 0h-711.111c-62.578 0-113.778 51.2-113.778 113.778v324.836c0 217.884 167.822 408.462 385.707 414.72 225.28 6.827 410.738-174.080 410.738-398.222v-56.889h28.444c109.796 0 199.111-89.316 199.111-199.111s-89.316-199.111-199.111-199.111zM682.667 113.778v170.667h-568.889v-170.667h568.889zM682.667 398.222v56.889c0 157.013-127.431 284.444-284.444 284.444s-284.444-127.431-284.444-284.444v-56.889zM824.889 284.444h-28.444v-170.667h28.444c47.218 0 85.333 38.116 85.333 85.333s-38.116 85.333-85.333 85.333zM0 910.222h910.222v113.778h-910.222v-113.778z"></path>
</svg>
