<!-- Generated by IcoMoon.io -->
<svg version="1.1" xmlns="http://www.w3.org/2000/svg" width="1024" height="1024" viewBox="0 0 1024 1024">
<g id="icomoon-ignore">
</g>
<path fill="#000" d="M256 358.4c56.554 0 102.4-45.846 102.4-102.4s-45.846-102.4-102.4-102.4c-56.554 0-102.4 45.846-102.4 102.4s45.846 102.4 102.4 102.4z"></path>
<path fill="#000" d="M921.6 563.2v-418.304c0-79.872-65.024-144.896-144.896-144.896-38.4 0-75.264 15.36-102.4 42.496l-64 64c-8.192-2.56-16.896-4.096-26.112-4.096-20.48 0-39.424 6.144-55.296 16.384l141.312 141.312c10.24-15.872 16.384-34.816 16.384-55.296 0-9.216-1.536-17.408-3.584-26.112l64-64c7.68-7.68 18.432-12.288 29.696-12.288 23.552 0 42.496 18.944 42.496 42.496v418.304h-350.72c-15.36-10.752-29.184-23.040-41.984-36.864l-71.68-79.36c-9.728-10.752-22.016-19.456-35.328-25.6-15.872-7.68-33.28-11.776-51.2-11.776-63.488 0.512-114.688 51.712-114.688 115.2v38.4h-153.6v307.2c0 56.32 46.080 102.4 102.4 102.4 0 28.16 23.040 51.2 51.2 51.2h716.8c28.16 0 51.2-23.040 51.2-51.2 56.32 0 102.4-46.080 102.4-102.4v-307.2h-102.4zM921.6 870.4h-819.2v-204.8h819.2v204.8z"></path>
</svg>
